<svg width="117" height="150" viewBox="0 0 117 150" fill="none" xmlns="http://www.w3.org/2000/svg">
<g filter="url(#filter0_d_65957_146838)">
<rect x="10" y="6" width="96.4516" height="130" rx="10" fill="white"/>
</g>
<rect x="31.4337" y="11.5916" width="53.5842" height="17.7061" rx="8.85305" fill="#C9CDD4"/>
<path d="M41.8207 28.4448C41.8207 25.1311 44.507 22.4448 47.8207 22.4448H68.6308C71.9445 22.4448 74.6308 25.1311 74.6308 28.4448V36.8093C74.6308 40.7006 70.9838 43.5625 67.2041 42.6372L60.6036 41.0214C59.0414 40.639 57.4101 40.639 55.848 41.0214L49.2474 42.6372C45.4677 43.5625 41.8207 40.7006 41.8207 36.8093V28.4448Z" stroke="#C9CDD4" stroke-width="4"/>
<rect x="24.4443" y="55.8567" width="69.4265" height="6.98925" rx="3.49462" fill="#D9D9D9"/>
<rect x="24.4443" y="67.5054" width="69.4265" height="6.98925" rx="3.49462" fill="#D9D9D9"/>
<rect x="24.4443" y="79.1543" width="69.4265" height="6.98925" rx="3.49462" fill="#D9D9D9"/>
<rect x="24.4443" y="102.452" width="35.4122" height="6.98925" rx="3.49462" fill="#D9D9D9"/>
<rect x="24.4443" y="114.1" width="15.8423" height="6.98925" rx="3.49462" fill="#D9D9D9"/>
<path d="M82.2222 102.063C76.8638 102.063 72.515 106.412 72.515 111.771C72.515 117.129 76.8638 121.478 82.2222 121.478C87.5807 121.478 91.9295 117.129 91.9295 111.771C91.9295 106.412 87.5807 102.063 82.2222 102.063ZM80.2808 116.624L75.4271 111.771L76.7959 110.402L80.2808 113.877L87.6486 106.509L89.0173 107.888L80.2808 116.624Z" fill="#E64E59"/>
<defs>
<filter id="filter0_d_65957_146838" x="0" y="0" width="116.452" height="150" filterUnits="userSpaceOnUse" color-interpolation-filters="sRGB">
<feFlood flood-opacity="0" result="BackgroundImageFix"/>
<feColorMatrix in="SourceAlpha" type="matrix" values="0 0 0 0 0 0 0 0 0 0 0 0 0 0 0 0 0 0 127 0" result="hardAlpha"/>
<feOffset dy="4"/>
<feGaussianBlur stdDeviation="5"/>
<feColorMatrix type="matrix" values="0 0 0 0 0 0 0 0 0 0 0 0 0 0 0 0 0 0 0.1 0"/>
<feBlend mode="normal" in2="BackgroundImageFix" result="effect1_dropShadow_65957_146838"/>
<feBlend mode="normal" in="SourceGraphic" in2="effect1_dropShadow_65957_146838" result="shape"/>
</filter>
</defs>
</svg>
