<svg width="154" height="127" viewBox="0 0 154 127" fill="none" xmlns="http://www.w3.org/2000/svg">
<ellipse cx="14.9545" cy="23.9782" rx="3.40909" ry="3.42548" fill="#EAEEF9"/>
<ellipse cx="8.13636" cy="83.5819" rx="6.13636" ry="6.16587" fill="#EAEEF9"/>
<ellipse cx="141.773" cy="19.1828" rx="4.09091" ry="4.11058" fill="#EAEEF9"/>
<ellipse cx="77" cy="54.8077" rx="54.5455" ry="54.8077" fill="#EAEEF9"/>
<g filter="url(#filter0_dd_65761_139621)">
<rect x="20.4091" y="15.0723" width="113.182" height="71.25" rx="6" fill="url(#paint0_linear_65761_139621)"/>
<rect x="30.0025" y="31.6416" width="19.7886" height="14.9128" rx="2" fill="#D5DDEA"/>
<ellipse cx="115.753" cy="36.613" rx="8.24524" ry="8.28488" fill="#989FB0"/>
<ellipse cx="105.858" cy="36.613" rx="8.24524" ry="8.28488" fill="#D5DDEA"/>
<path d="M30.0025 75.5515C30.0025 74.6364 30.7408 73.8945 31.6515 73.8945H48.142C49.0528 73.8945 49.7911 74.6364 49.7911 75.5515C49.7911 76.4666 49.0528 77.2085 48.142 77.2085H31.6515C30.7408 77.2085 30.0025 76.4666 30.0025 75.5515Z" fill="#D5DDEA"/>
<path d="M54.7382 75.5515C54.7382 74.6364 55.4765 73.8945 56.3873 73.8945H72.8778C73.7885 73.8945 74.5268 74.6364 74.5268 75.5515C74.5268 76.4666 73.7885 77.2085 72.8778 77.2085H56.3873C55.4765 77.2085 54.7382 76.4666 54.7382 75.5515Z" fill="#D5DDEA"/>
<path d="M79.4739 75.5515C79.4739 74.6364 80.2122 73.8945 81.123 73.8945H97.6135C98.5242 73.8945 99.2625 74.6364 99.2625 75.5515C99.2625 76.4666 98.5242 77.2085 97.6135 77.2085H81.123C80.2122 77.2085 79.4739 76.4666 79.4739 75.5515Z" fill="#D5DDEA"/>
<path d="M104.21 75.5515C104.21 74.6364 104.948 73.8945 105.859 73.8945H122.349C123.26 73.8945 123.998 74.6364 123.998 75.5515C123.998 76.4666 123.26 77.2085 122.349 77.2085H105.859C104.948 77.2085 104.21 76.4666 104.21 75.5515Z" fill="#D5DDEA"/>
</g>
<path d="M128.729 72.7679C131.036 68.7536 136.828 68.7536 139.134 72.7679L148.548 89.1507C150.846 93.1507 147.958 98.1399 143.345 98.1399H124.518C119.905 98.1399 117.018 93.1507 119.316 89.1507L128.729 72.7679Z" fill="url(#paint1_linear_65761_139621)"/>
<path d="M132.402 91.9739C132.402 91.7265 132.45 91.4815 132.544 91.2529C132.639 91.0243 132.777 90.8166 132.951 90.6417C133.125 90.4667 133.332 90.328 133.559 90.2333C133.787 90.1386 134.03 90.0899 134.277 90.0899C134.523 90.0899 134.767 90.1386 134.994 90.2333C135.222 90.328 135.428 90.4667 135.603 90.6417C135.777 90.8166 135.915 91.0243 136.009 91.2529C136.103 91.4815 136.152 91.7265 136.152 91.9739C136.152 92.4736 135.954 92.9528 135.603 93.3061C135.251 93.6594 134.774 93.8579 134.277 93.8579C133.779 93.8579 133.303 93.6594 132.951 93.3061C132.599 92.9528 132.402 92.4736 132.402 91.9739ZM132.585 80.6604C132.56 80.4227 132.586 80.1824 132.659 79.9551C132.732 79.7277 132.853 79.5184 133.012 79.3408C133.171 79.1631 133.365 79.0211 133.583 78.9239C133.8 78.8266 134.035 78.7764 134.273 78.7764C134.511 78.7764 134.746 78.8266 134.963 78.9239C135.181 79.0211 135.375 79.1631 135.534 79.3408C135.693 79.5184 135.814 79.7277 135.887 79.9551C135.96 80.1824 135.985 80.4227 135.96 80.6604L135.304 87.2676C135.278 87.5238 135.157 87.7609 134.967 87.9333C134.777 88.1057 134.529 88.2011 134.273 88.2011C134.017 88.2011 133.769 88.1057 133.579 87.9333C133.389 87.7609 133.268 87.5238 133.242 87.2676L132.585 80.6604Z" fill="white"/>
<ellipse cx="144.5" cy="2.74038" rx="2.72727" ry="2.74038" fill="#EAEEF9"/>
<defs>
<filter id="filter0_dd_65761_139621" x="0.409088" y="15.0723" width="153.182" height="111.25" filterUnits="userSpaceOnUse" color-interpolation-filters="sRGB">
<feFlood flood-opacity="0" result="BackgroundImageFix"/>
<feColorMatrix in="SourceAlpha" type="matrix" values="0 0 0 0 0 0 0 0 0 0 0 0 0 0 0 0 0 0 127 0" result="hardAlpha"/>
<feMorphology radius="4" operator="erode" in="SourceAlpha" result="effect1_dropShadow_65761_139621"/>
<feOffset dy="8"/>
<feGaussianBlur stdDeviation="4"/>
<feColorMatrix type="matrix" values="0 0 0 0 0.0627451 0 0 0 0 0.0941176 0 0 0 0 0.156863 0 0 0 0.03 0"/>
<feBlend mode="normal" in2="BackgroundImageFix" result="effect1_dropShadow_65761_139621"/>
<feColorMatrix in="SourceAlpha" type="matrix" values="0 0 0 0 0 0 0 0 0 0 0 0 0 0 0 0 0 0 127 0" result="hardAlpha"/>
<feMorphology radius="4" operator="erode" in="SourceAlpha" result="effect2_dropShadow_65761_139621"/>
<feOffset dy="20"/>
<feGaussianBlur stdDeviation="12"/>
<feColorMatrix type="matrix" values="0 0 0 0 0.0627451 0 0 0 0 0.0941176 0 0 0 0 0.156863 0 0 0 0.08 0"/>
<feBlend mode="normal" in2="effect1_dropShadow_65761_139621" result="effect2_dropShadow_65761_139621"/>
<feBlend mode="normal" in="SourceGraphic" in2="effect2_dropShadow_65761_139621" result="shape"/>
</filter>
<linearGradient id="paint0_linear_65761_139621" x1="24.3506" y1="85.4789" x2="22.2697" y2="20.2688" gradientUnits="userSpaceOnUse">
<stop stop-color="#EDF0F6"/>
<stop offset="1" stop-color="#FCFDFF"/>
</linearGradient>
<linearGradient id="paint1_linear_65761_139621" x1="133.932" y1="40.7631" x2="88.0309" y2="86.4444" gradientUnits="userSpaceOnUse">
<stop stop-color="#FF8960"/>
<stop offset="1" stop-color="#FF62A5"/>
</linearGradient>
</defs>
</svg>
