<svg width="128" height="128" viewBox="0 0 128 128" fill="none" xmlns="http://www.w3.org/2000/svg">
<path d="M5.72944 81.333C5.70825 83.2132 6.18364 85.0978 7.15565 86.7829L20.1605 109.329C22.0654 112.632 25.5879 114.666 29.4003 114.666H98.5998C102.412 114.666 105.935 112.632 107.84 109.329L120.844 86.7829C121.816 85.0977 122.292 83.2132 122.271 81.333H5.72944Z" fill="#4285F4"/>
<path d="M103.978 113.212L45.6423 12.1724C47.2673 11.2034 49.1483 10.667 51.1058 10.667H76.8941C80.7049 10.667 84.2263 12.7 86.1317 16.0003L120.842 76.1206C122.747 79.4196 122.748 83.4838 120.844 86.7835L107.839 109.33C106.896 110.966 105.554 112.291 103.978 113.212Z" fill="#FBBC04"/>
<path d="M82.3577 12.1724C80.7328 11.2034 78.8517 10.667 76.8942 10.667H51.1059C47.2951 10.667 43.7737 12.7 41.8683 16.0003L7.15782 76.1207C5.25318 79.4196 5.25235 83.4839 7.15565 86.7836L20.1605 109.33C21.1045 110.966 22.4456 112.292 24.0224 113.212L82.3577 12.1724Z" fill="#34A853"/>
<path d="M122.271 81.333C122.292 83.2132 121.816 85.0977 120.844 86.7829L107.839 109.329C106.895 110.966 105.554 112.291 103.978 113.211L85.5725 81.333H122.271Z" fill="#EA4335"/>
<path d="M82.3575 12.1724C80.7326 11.2034 78.8515 10.667 76.8941 10.667H51.1058C49.1483 10.667 47.2673 11.2034 45.6423 12.1724L63.9999 43.9687L82.3575 12.1724Z" fill="#188038"/>
<path d="M5.72944 81.333C5.70825 83.2132 6.18364 85.0978 7.15565 86.7829L20.1605 109.329C21.1045 110.966 22.4456 112.291 24.0224 113.211L42.4274 81.333H5.72944Z" fill="#1967D2"/>
</svg>
