<svg width="60" height="37" viewBox="0 0 60 37" fill="none" xmlns="http://www.w3.org/2000/svg">
<path d="M37.9819 3.95703H21.7929V33.0421H37.9819V3.95703Z" fill="#FF5A00"/>
<path d="M22.8706 18.5C22.8706 12.5908 25.6485 7.34612 29.9113 3.95744C26.7741 1.49078 22.8167 0 18.5 0C8.27411 0 0 8.27411 0 18.5C0 28.7259 8.27411 37 18.5 37C22.8167 37 26.7741 35.5092 29.9113 33.0426C25.6426 29.7018 22.8706 24.4092 22.8706 18.5Z" fill="#EB001B"/>
<path d="M59.8226 18.5C59.8226 28.7259 51.5485 37 41.3226 37C37.006 37 33.0485 35.5092 29.9113 33.0426C34.228 29.6479 36.9521 24.4092 36.9521 18.5C36.9521 12.5908 34.1741 7.34612 29.9113 3.95744C33.0425 1.49078 37 0 41.3167 0C51.5485 0 59.8226 8.32799 59.8226 18.5Z" fill="#F79E1B"/>
</svg>
