<svg width="200" height="200" viewBox="0 0 200 200" fill="none" xmlns="http://www.w3.org/2000/svg">
<path d="M200 152.96H0V153.06H200V152.96Z" fill="#EBEBEB"/>
<path d="M179.96 159.396H166.712V159.496H179.96V159.396Z" fill="#EBEBEB"/>
<path d="M132.488 160.484H129.012V160.584H132.488V160.484Z" fill="#EBEBEB"/>
<path d="M166.312 155.684H158.636V155.784H166.312V155.684Z" fill="#EBEBEB"/>
<path d="M38.26 156.356H20.984V156.456H38.26V156.356Z" fill="#EBEBEB"/>
<path d="M44.356 156.356H41.824V156.456H44.356V156.356Z" fill="#EBEBEB"/>
<path d="M90.06 158.044H52.588V158.144H90.06V158.044Z" fill="#EBEBEB"/>
<path d="M94.8 135.12H17.564C16.9589 135.119 16.379 134.878 15.9516 134.45C15.5241 134.021 15.284 133.441 15.284 132.836V24.264C15.2893 23.6624 15.5317 23.0872 15.9586 22.6633C16.3855 22.2394 16.9624 22.001 17.564 22H94.8C95.4057 22 95.9867 22.2406 96.415 22.669C96.8434 23.0973 97.084 23.6782 97.084 24.284V132.836C97.084 133.442 96.8434 134.023 96.415 134.451C95.9867 134.879 95.4057 135.12 94.8 135.12ZM17.564 22.08C16.9855 22.0811 16.431 22.3116 16.0223 22.7211C15.6135 23.1306 15.384 23.6855 15.384 24.264V132.836C15.384 133.415 15.6135 133.969 16.0223 134.379C16.431 134.788 16.9855 135.019 17.564 135.02H94.8C95.3789 135.019 95.9338 134.789 96.3431 134.379C96.7525 133.97 96.9829 133.415 96.984 132.836V24.264C96.9829 23.6851 96.7525 23.1302 96.3431 22.7208C95.9338 22.3115 95.3789 22.0811 94.8 22.08H17.564Z" fill="#EBEBEB"/>
<path d="M181.324 135.12H104.084C103.479 135.119 102.898 134.878 102.47 134.45C102.042 134.022 101.801 133.441 101.8 132.836V24.264C101.806 23.662 102.05 23.0868 102.477 22.663C102.905 22.2392 103.482 22.001 104.084 22H181.324C181.925 22.0021 182.501 22.2409 182.927 22.6647C183.353 23.0885 183.595 23.6631 183.6 24.264V132.836C183.6 133.44 183.36 134.02 182.934 134.448C182.507 134.876 181.928 135.118 181.324 135.12ZM104.084 22.08C103.505 22.0811 102.95 22.3115 102.541 22.7208C102.131 23.1302 101.901 23.6851 101.9 24.264V132.836C101.901 133.415 102.131 133.97 102.541 134.379C102.95 134.789 103.505 135.019 104.084 135.02H181.324C181.903 135.019 182.458 134.789 182.867 134.379C183.276 133.97 183.507 133.415 183.508 132.836V24.264C183.507 23.6851 183.276 23.1302 182.867 22.7208C182.458 22.3115 181.903 22.0811 181.324 22.08H104.084Z" fill="#EBEBEB"/>
<path d="M168.836 50.9839H104.832V93.2999H168.836V50.9839Z" fill="#E0E0E0"/>
<path d="M166.64 53.2759H107.024V91.0119H166.64V53.2759Z" fill="#EBEBEB"/>
<path d="M122.224 55.832H110.916V71.52H122.224V55.832Z" fill="#F5F5F5"/>
<path d="M136.832 57.3081H124.204V74.6921H136.832V57.3081Z" fill="#F5F5F5"/>
<path d="M150.632 55.832H140.176V70.864H150.632V55.832Z" fill="#F5F5F5"/>
<path d="M162.468 56.948H153.264V73.844H162.468V56.948Z" fill="#F5F5F5"/>
<path d="M162.468 77.1001H142.352V89.4401H162.468V77.1001Z" fill="#F5F5F5"/>
<path d="M119.204 78.7161H111.672V86.2481H119.204V78.7161Z" fill="#F5F5F5"/>
<path d="M129.608 80.384H121.984V88.008H129.608V80.384Z" fill="#F5F5F5"/>
<path d="M98.532 50.364H48.172V152.676H98.532V50.364Z" fill="#E0E0E0"/>
<path d="M66.888 59.844H57.076V69.656H66.888V59.844Z" fill="#F0F0F0"/>
<path d="M78.256 59.844H68.444V69.656H78.256V59.844Z" fill="#F0F0F0"/>
<path d="M89.624 59.844H79.812V69.656H89.624V59.844Z" fill="#F0F0F0"/>
<path d="M66.888 71.2561H57.076V81.0681H66.888V71.2561Z" fill="#F0F0F0"/>
<path d="M78.256 71.2561H68.444V81.0681H78.256V71.2561Z" fill="#F0F0F0"/>
<path d="M89.624 71.2561H79.812V81.0681H89.624V71.2561Z" fill="#F0F0F0"/>
<path d="M94.516 97.2321C94.516 97.6063 94.405 97.9721 94.1971 98.2832C93.9892 98.5944 93.6937 98.8369 93.348 98.9801C93.0023 99.1233 92.6219 99.1607 92.2549 99.0877C91.8879 99.0147 91.5507 98.8345 91.2861 98.5699C91.0215 98.3053 90.8414 97.9682 90.7683 97.6012C90.6953 97.2342 90.7328 96.8538 90.876 96.5081C91.0192 96.1623 91.2617 95.8668 91.5729 95.659C91.884 95.4511 92.2498 95.3401 92.624 95.3401C92.8726 95.3396 93.1189 95.3881 93.3487 95.483C93.5784 95.5779 93.7872 95.7173 93.963 95.8931C94.1388 96.0689 94.2782 96.2776 94.373 96.5074C94.4679 96.7372 94.5165 96.9835 94.516 97.2321Z" fill="#F0F0F0"/>
<path d="M46.056 50.428H27.036V59.392H46.056V50.428Z" fill="#E0E0E0"/>
<path d="M46.056 61.908H30.684V67.192H46.056V61.908Z" fill="#E0E0E0"/>
<path d="M46.056 50.428H28.812V59.392H46.056V50.428Z" fill="#EBEBEB"/>
<path d="M46.056 61.908H32.116V67.192H46.056V61.908Z" fill="#EBEBEB"/>
<path d="M75.8954 45.5851C78.9854 44.3052 80.4528 40.7626 79.1728 37.6726C77.8929 34.5826 74.3503 33.1152 71.2603 34.3951C68.1703 35.6751 66.7029 39.2176 67.9828 42.3077C69.2628 45.3977 72.8053 46.8651 75.8954 45.5851Z" fill="#F0F0F0"/>
<path d="M75.3856 44.3546C77.796 43.3562 78.9406 40.5928 77.9422 38.1824C76.9438 35.772 74.1804 34.6274 71.77 35.6258C69.3596 36.6242 68.215 39.3876 69.2134 41.798C70.2118 44.2084 72.9752 45.353 75.3856 44.3546Z" fill="#FAFAFA"/>
<path d="M72.064 41.456L71.812 41.144L73.38 39.892V36.804H73.78V40.084L72.064 41.456Z" fill="#F0F0F0"/>
<path d="M136.032 140.044C136.032 139.908 136.496 126.356 138.7 124.212C140.844 122.128 143.304 124.136 143.408 124.212L143.628 123.948C143.604 123.924 140.828 121.66 138.46 123.948C136.156 126.188 135.708 139.452 135.688 140.016L136.032 140.044Z" fill="#E0E0E0"/>
<path d="M135.844 142.708C135.844 142.544 137.352 126.44 131.468 119.688L131.208 119.916C136.992 126.552 135.516 142.512 135.5 142.672L135.844 142.708Z" fill="#E0E0E0"/>
<path d="M136.06 141.004L136.404 140.98C136.404 140.796 135.256 122.668 139.568 118.7L139.336 118.448C134.9 122.528 136 140.252 136.06 141.004Z" fill="#E0E0E0"/>
<path d="M135.5 140.992H135.844C135.844 140.492 135.704 128.744 132.368 126.832C132.051 126.627 131.689 126.501 131.313 126.465C130.937 126.429 130.558 126.483 130.208 126.624C128.208 127.456 127.192 131.048 127.148 131.2L127.48 131.292C127.48 131.256 128.48 127.692 130.34 126.944C130.642 126.825 130.968 126.78 131.291 126.812C131.614 126.845 131.924 126.955 132.196 127.132C135.36 128.948 135.5 140.872 135.5 140.992Z" fill="#E0E0E0"/>
<path d="M136.8 141L137.144 140.98C137.144 140.888 136.64 131.7 139.12 128.464C139.72 127.664 140.372 127.304 141.064 127.352C142.688 127.468 144.048 129.844 144.064 129.868L144.364 129.7C144.304 129.592 142.896 127.136 141.088 127.008C140.288 126.952 139.524 127.372 138.848 128.252C136.288 131.6 136.776 140.62 136.8 141Z" fill="#E0E0E0"/>
<path d="M136.256 142.252C136.324 141.36 137.876 120.38 135.144 116.68L134.864 116.888C137.524 120.488 135.928 142.008 135.912 142.224L136.256 142.252Z" fill="#E0E0E0"/>
<path d="M129.464 128.748C129.464 128.748 131.104 129.356 130.616 130.78C130.128 132.204 124.944 134.556 124.944 134.556C124.944 134.556 122.772 132.556 124.768 129.328C126.764 126.1 129.42 127.728 129.464 128.748Z" fill="#EBEBEB"/>
<path d="M136.592 126.032C136.592 126.032 134.848 125.96 134.748 127.464C134.648 128.968 138.532 133.132 138.532 133.132C138.532 133.132 141.3 132.132 140.708 128.376C140.116 124.62 137.028 125.108 136.592 126.032Z" fill="#EBEBEB"/>
<path d="M138.072 118.828C138.072 118.828 136.908 118.704 137 117.996C137.092 117.288 141.528 115.46 144.144 118.396C144.144 118.396 142.468 121.272 140.048 121.308C137.628 121.344 138.072 118.828 138.072 118.828Z" fill="#EBEBEB"/>
<path d="M135.904 117.108C135.904 117.108 136.956 117.616 137.252 116.964C137.548 116.312 134.752 112.42 130.972 113.544C130.972 113.544 130.872 116.868 132.904 118.18C134.936 119.492 135.904 117.108 135.904 117.108Z" fill="#EBEBEB"/>
<path d="M141.416 128.176C141.416 128.176 140.616 127.528 141.48 127.212C142.344 126.896 146.6 126.984 146.644 131.212C146.644 131.212 141.688 132.036 141.076 130.412C140.464 128.788 141.416 128.176 141.416 128.176Z" fill="#EBEBEB"/>
<path d="M131.308 118.724C131.308 118.724 132.108 118.076 131.244 117.756C130.38 117.436 126.124 117.532 126.08 121.756C126.08 121.756 131.036 122.58 131.648 120.976C132.26 119.372 131.308 118.724 131.308 118.724Z" fill="#EBEBEB"/>
<path d="M133.928 122.12C133.928 122.12 134 121.32 133.364 121.64C132.728 121.96 130.508 124.34 132.808 126.612C132.808 126.612 135.904 124.32 135.344 123.124C134.784 121.928 133.928 122.12 133.928 122.12Z" fill="#EBEBEB"/>
<path d="M142.132 123.24C142.132 123.24 141.652 122.612 142.356 122.536C143.06 122.46 146.212 123.3 145.476 126.444C145.476 126.444 141.636 126.156 141.476 124.844C141.316 123.532 142.132 123.24 142.132 123.24Z" fill="#EBEBEB"/>
<path d="M129.156 152.676H142.336L143.756 138.248H127.736L129.156 152.676Z" fill="#F0F0F0"/>
<path d="M127.032 139.84H144.46V136.656H127.032V139.84Z" fill="#E6E6E6"/>
<path d="M100 171.024C142.833 171.024 177.556 168.997 177.556 166.496C177.556 163.995 142.833 161.968 100 161.968C57.167 161.968 22.444 163.995 22.444 166.496C22.444 168.997 57.167 171.024 100 171.024Z" fill="#F5F5F5"/>
<path d="M99.728 39.5081H88.24C87.3011 39.5081 86.4007 39.8811 85.7369 40.5449C85.073 41.2088 84.7 42.1092 84.7 43.0481V53.0481C84.7 53.987 85.073 54.8874 85.7369 55.5513C86.4007 56.2151 87.3011 56.5881 88.24 56.5881H92.8L94.8 59.7441L95.2 56.5881H99.748C100.213 56.5881 100.673 56.4965 101.102 56.3186C101.531 56.1406 101.921 55.8798 102.25 55.551C102.578 55.2222 102.839 54.832 103.016 54.4025C103.193 53.973 103.285 53.5128 103.284 53.0481V43.0481C103.284 42.5819 103.192 42.1202 103.013 41.6897C102.834 41.2591 102.572 40.8682 102.242 40.5393C101.911 40.2103 101.519 39.9499 101.088 39.773C100.656 39.596 100.194 39.506 99.728 39.5081Z" fill="#D6001C"/>
<path opacity="0.7" d="M99.728 39.5081H88.24C87.3011 39.5081 86.4007 39.8811 85.7369 40.5449C85.073 41.2088 84.7 42.1092 84.7 43.0481V53.0481C84.7 53.987 85.073 54.8874 85.7369 55.5513C86.4007 56.2151 87.3011 56.5881 88.24 56.5881H92.8L94.8 59.7441L95.2 56.5881H99.748C100.213 56.5881 100.673 56.4965 101.102 56.3186C101.531 56.1406 101.921 55.8798 102.25 55.551C102.578 55.2222 102.839 54.832 103.016 54.4025C103.193 53.973 103.285 53.5128 103.284 53.0481V43.0481C103.284 42.5819 103.192 42.1202 103.013 41.6897C102.834 41.2591 102.572 40.8682 102.242 40.5393C101.911 40.2103 101.519 39.9499 101.088 39.773C100.656 39.596 100.194 39.506 99.728 39.5081Z" fill="white"/>
<path d="M98.018 52.0368C100.246 49.8092 100.246 46.1976 98.018 43.9701C95.7905 41.7425 92.1789 41.7425 89.9514 43.9701C87.7238 46.1976 87.7238 49.8092 89.9514 52.0368C92.1789 54.2643 95.7905 54.2643 98.018 52.0368Z" fill="#D6001C"/>
<path d="M93.384 50.552C93.3079 50.5527 93.2325 50.5366 93.1634 50.5048C93.0942 50.473 93.033 50.4263 92.984 50.368L90.744 47.732C90.6538 47.6259 90.6095 47.4884 90.6207 47.3496C90.632 47.2108 90.6979 47.0822 90.804 46.992C90.9101 46.9018 91.0476 46.8575 91.1864 46.8687C91.3252 46.88 91.4538 46.9459 91.544 47.052L93.38 49.22L96.416 45.644C96.5072 45.5434 96.6339 45.4821 96.7695 45.4731C96.905 45.4641 97.0387 45.508 97.1424 45.5957C97.2462 45.6833 97.3118 45.8079 97.3256 45.943C97.3393 46.0781 97.3 46.2133 97.216 46.32L93.78 50.368C93.7311 50.4253 93.6704 50.4715 93.6021 50.5032C93.5337 50.535 93.4594 50.5516 93.384 50.552Z" fill="white"/>
<path d="M164.772 93.936L164.008 93.9C164.008 93.9 162.704 103.336 161.84 104.076C160.976 104.816 148.3 102.364 147.56 101.828C147.535 101.806 147.516 101.777 147.508 101.744C146.952 100.356 149.152 84.7 149.96 83.972C150.768 83.244 153.236 83.972 153.236 83.972C153.236 83.972 158.576 85.224 161.636 86.056C162.333 86.2207 163.016 86.4373 163.68 86.704C164.48 87.176 164.772 93.936 164.772 93.936Z" fill="#263238"/>
<path opacity="0.2" d="M161.932 93.224C161.932 93.224 160.624 102.66 159.764 103.4C159.092 103.976 151.308 102.628 147.508 101.744C146.952 100.356 149.152 84.7 149.96 83.972C150.768 83.244 153.236 83.972 153.236 83.972C153.236 83.972 158.576 85.224 161.636 86.056C162.4 86.692 161.932 93.224 161.932 93.224Z" fill="white"/>
<path d="M139.7 68.488L139.048 65.832L142.016 66.448C142.016 66.448 142.456 68.848 141.216 69.028L139.7 68.488Z" fill="#EEC1BB"/>
<path d="M139.864 63.252L142.236 64.6479L142.016 66.4479L139.048 65.832L139.864 63.252Z" fill="#EEC1BB"/>
<path d="M150.148 84.2439C149.684 84.4693 149.207 84.667 148.72 84.8359C148.368 84.7039 148.024 84.5679 147.684 84.4359C147.512 84.3639 147.336 84.2959 147.168 84.2199C146.544 83.9639 145.932 83.6879 145.324 83.3959L144.6 83.0439C144.4 82.9399 144.2 82.8399 143.996 82.7319C143.54 82.4839 143.084 82.2399 142.632 81.9719C142.32 81.7919 142.008 81.5999 141.7 81.3999C141.392 81.1999 141.068 80.9719 140.748 80.7319L140.56 80.5919C140.15 80.2865 139.768 79.9466 139.416 79.5759C139.203 79.3595 139.009 79.1253 138.836 78.8759C138.73 78.7276 138.634 78.5727 138.548 78.4119C138.524 78.3639 138.496 78.3119 138.472 78.2559C138.412 78.1199 138.356 77.9799 138.32 77.8559C138.146 77.3017 138.056 76.7247 138.052 76.1439C138.042 75.3579 138.099 74.5725 138.22 73.7959C138.22 73.6599 138.26 73.5199 138.28 73.3959C138.446 72.4264 138.664 71.4664 138.932 70.5199C139.132 69.8106 139.36 69.1039 139.616 68.3999L141.584 68.8319C141.552 69.4799 141.512 70.1279 141.488 70.7759C141.444 71.7519 141.412 72.7199 141.412 73.6639V74.0639C141.412 74.6199 141.448 75.1639 141.508 75.6639C141.508 75.7319 141.528 75.8039 141.536 75.8719C141.57 76.1194 141.636 76.3614 141.732 76.5919C141.752 76.6319 141.732 76.5919 141.756 76.6159C141.78 76.6399 141.756 76.6359 141.812 76.6719C141.868 76.7079 141.948 76.8119 142.052 76.8999C142.583 77.3307 143.152 77.7123 143.752 78.0399H143.788C144.432 78.3999 145.112 78.7559 145.816 79.0879L145.964 79.1559C146.948 79.6279 147.964 80.0879 149 80.5199C149.4 80.6879 149.8 80.8559 150.172 81.0119C150.172 81.0119 151.472 81.3679 151.932 82.2639C152.304 83.0159 151.168 83.7519 150.148 84.2439Z" fill="#D6001C"/>
<path opacity="0.2" d="M150.148 84.2439C149.684 84.4693 149.207 84.6669 148.72 84.8359C148.368 84.7039 148.024 84.5679 147.684 84.4359C147.512 84.3639 147.336 84.2959 147.168 84.2199C146.544 83.9639 145.932 83.6879 145.324 83.3959C147.516 82.3599 149.232 83.4079 150.148 84.2439Z" fill="black"/>
<path d="M135.904 161.652L133.38 160.736L134.768 154.652L137.296 155.568L135.904 161.652Z" fill="#EEC1BB"/>
<path d="M155.824 165.008H153.144L152.38 158.8H155.06L155.824 165.008Z" fill="#EEC1BB"/>
<path d="M152.8 164.696H156.068C156.121 164.697 156.173 164.715 156.214 164.748C156.255 164.782 156.284 164.828 156.296 164.88L156.852 167.28C156.863 167.339 156.861 167.399 156.846 167.457C156.831 167.514 156.804 167.568 156.765 167.613C156.727 167.659 156.679 167.696 156.625 167.72C156.571 167.745 156.512 167.757 156.452 167.756C155.4 167.736 154.632 167.676 153.308 167.676C152.508 167.676 150.036 167.76 148.908 167.76C147.78 167.76 147.628 166.648 148.108 166.56C150.168 166.108 151.708 165.484 152.372 164.888C152.487 164.775 152.639 164.707 152.8 164.696Z" fill="#263238"/>
<path d="M133.288 160.224L136.156 160.836C136.208 160.848 136.254 160.877 136.288 160.918C136.322 160.96 136.342 161.011 136.344 161.064L136.384 163.504C136.385 163.563 136.373 163.622 136.348 163.676C136.324 163.73 136.288 163.777 136.243 163.816C136.197 163.854 136.144 163.882 136.087 163.897C136.03 163.912 135.97 163.915 135.912 163.904C134.88 163.664 133.396 163.28 132.096 163.004C130.576 162.676 129.632 162.368 127.848 161.988C126.768 161.756 126.692 160.604 127.164 160.6C129.312 160.6 130.612 161 132.612 160.304C132.825 160.213 133.06 160.185 133.288 160.224Z" fill="#263238"/>
<path opacity="0.2" d="M134.768 154.652L134.052 157.788L136.58 158.708L137.296 155.572L134.768 154.652Z" fill="black"/>
<path opacity="0.2" d="M155.064 158.8H152.38L152.776 162H155.456L155.064 158.8Z" fill="black"/>
<path d="M133.312 156.864L137.6 158.4C137.6 158.4 140.94 143.692 142.716 135.536C143.497 132.313 144.46 129.138 145.6 126.024C147.224 121.448 149.16 116.52 150.724 112.668C152.376 108.612 153.604 105.748 153.604 105.748L144.356 103.876C144.356 103.876 137.304 124.176 135.716 132.2C134.084 140.544 133.312 156.864 133.312 156.864Z" fill="#263238"/>
<g opacity="0.3">
<path opacity="0.3" d="M133.312 156.864L137.6 158.4C137.6 158.4 140.94 143.692 142.716 135.536C143.497 132.313 144.46 129.138 145.6 126.024C147.224 121.448 149.16 116.52 150.724 112.668C152.376 108.612 153.604 105.748 153.604 105.748L144.356 103.876C144.356 103.876 137.304 124.176 135.716 132.2C134.084 140.544 133.312 156.864 133.312 156.864Z" fill="white"/>
</g>
<path opacity="0.2" d="M145.6 126.024C147.224 121.448 149.16 116.52 150.724 112.668L150.008 110.456C147.38 112.904 145.728 121.34 145.6 126.024Z" fill="black"/>
<path d="M149.36 104.888C149.36 104.888 147.712 128.032 147.612 135.9C147.5 144.512 151.528 161.38 151.528 161.38H156.44C156.44 161.38 154.476 146.16 155.132 137.628C155.86 128.084 158.436 106.724 158.436 106.724L149.36 104.888Z" fill="#263238"/>
<g opacity="0.3">
<path opacity="0.3" d="M149.36 104.888C149.36 104.888 147.712 128.032 147.612 135.9C147.5 144.512 151.528 161.38 151.528 161.38H156.44C156.44 161.38 154.476 146.16 155.132 137.628C155.86 128.084 158.436 106.724 158.436 106.724L149.36 104.888Z" fill="white"/>
</g>
<path d="M150.944 161.488H156.724L156.708 159.76L150.672 159.412L150.944 161.488Z" fill="#263238"/>
<path d="M132.74 156.808L137.86 158.584L138.42 156.932L132.82 154.892L132.74 156.808Z" fill="#263238"/>
<path d="M151.908 165.164C151.725 165.179 151.543 165.131 151.392 165.028C151.344 164.987 151.307 164.935 151.284 164.876C151.26 164.818 151.251 164.755 151.256 164.692C151.255 164.655 151.265 164.618 151.284 164.586C151.303 164.554 151.331 164.529 151.364 164.512C151.656 164.36 152.528 164.912 152.628 164.952C152.638 164.959 152.646 164.969 152.651 164.98C152.656 164.991 152.658 165.004 152.656 165.016C152.655 165.029 152.649 165.04 152.64 165.05C152.632 165.059 152.62 165.066 152.608 165.068C152.379 165.126 152.144 165.158 151.908 165.164ZM151.508 164.612C151.482 164.605 151.454 164.605 151.428 164.612C151.408 164.612 151.388 164.636 151.388 164.684C151.383 164.727 151.388 164.771 151.403 164.811C151.418 164.851 151.443 164.888 151.476 164.916C151.775 165.053 152.116 165.07 152.428 164.964C152.146 164.788 151.832 164.668 151.504 164.612H151.508Z" fill="#D6001C"/>
<path d="M152.596 165.072H152.564C152.284 164.92 151.744 164.332 151.796 164.036C151.805 163.989 151.83 163.947 151.866 163.917C151.903 163.886 151.948 163.869 151.996 163.868C152.044 163.862 152.093 163.866 152.14 163.88C152.187 163.893 152.231 163.917 152.268 163.948C152.58 164.204 152.668 164.976 152.668 165.012C152.669 165.023 152.668 165.034 152.663 165.044C152.658 165.054 152.65 165.062 152.64 165.068C152.634 165.072 152.626 165.075 152.619 165.076C152.611 165.077 152.603 165.075 152.596 165.072ZM152.044 164H152C151.92 164 151.912 164.048 151.908 164.064C151.876 164.244 152.224 164.688 152.5 164.896C152.478 164.59 152.365 164.297 152.176 164.056C152.139 164.023 152.093 164.004 152.044 164Z" fill="#D6001C"/>
<path d="M132.952 160.528C132.512 160.528 131.752 160.464 131.504 160.148C131.468 160.102 131.445 160.048 131.435 159.991C131.425 159.934 131.43 159.875 131.448 159.82C131.456 159.787 131.473 159.756 131.497 159.731C131.521 159.707 131.551 159.689 131.584 159.68C131.94 159.568 132.888 160.328 132.992 160.416C133.003 160.424 133.011 160.435 133.015 160.448C133.018 160.462 133.017 160.475 133.012 160.488C133.008 160.501 133 160.512 132.989 160.519C132.978 160.526 132.965 160.529 132.952 160.528ZM131.64 159.796H131.6C131.587 159.799 131.575 159.806 131.565 159.816C131.556 159.826 131.55 159.838 131.548 159.852C131.535 159.888 131.531 159.926 131.536 159.964C131.542 160.002 131.557 160.037 131.58 160.068C131.712 160.248 132.14 160.364 132.74 160.392C132.4 160.108 131.852 159.768 131.64 159.796Z" fill="#D6001C"/>
<path d="M132.952 160.528C132.945 160.532 132.938 160.534 132.93 160.534C132.922 160.534 132.915 160.532 132.908 160.528C132.62 160.32 132.108 159.616 132.216 159.328C132.244 159.26 132.312 159.184 132.484 159.204C132.547 159.211 132.609 159.23 132.664 159.261C132.72 159.292 132.769 159.334 132.808 159.384C132.987 159.719 133.057 160.103 133.008 160.48C133.008 160.491 133.004 160.502 132.998 160.511C132.992 160.521 132.983 160.528 132.972 160.532L132.952 160.528ZM132.404 159.328C132.39 159.329 132.376 159.333 132.364 159.341C132.352 159.348 132.342 159.359 132.336 159.372C132.272 159.544 132.608 160.084 132.892 160.344C132.923 160.039 132.859 159.731 132.708 159.464C132.68 159.426 132.645 159.395 132.604 159.372C132.564 159.349 132.518 159.336 132.472 159.332L132.404 159.328Z" fill="#D6001C"/>
<path d="M163.656 84.02C163.245 85.0146 162.868 86.016 162.524 87.024C162.432 87.292 162.344 87.556 162.256 87.824C161.984 88.66 161.732 89.496 161.5 90.324C161.42 90.616 161.34 90.908 161.264 91.196C161.14 91.652 161.024 92.104 160.912 92.552C160.852 92.804 160.792 93.052 160.736 93.296C160.596 93.888 160.468 94.468 160.336 95.04C160.204 95.612 160.112 96.128 160.012 96.64C159.912 97.152 159.796 97.756 159.704 98.292C159.612 98.828 159.524 99.344 159.444 99.848C159.364 100.352 159.272 100.944 159.2 101.448C159.108 102.092 159.024 102.696 158.952 103.248C158.72 104.908 158.552 106.128 158.428 106.708L144.368 103.86C144.368 102.756 144.368 101.696 144.416 100.66C144.444 99.976 144.476 99.308 144.524 98.66C144.548 98.232 144.58 97.812 144.616 97.4C144.672 96.772 144.732 96.164 144.8 95.572C144.876 94.908 144.96 94.268 145.056 93.652C145.224 92.512 145.42 91.456 145.628 90.476C145.884 89.276 146.156 88.216 146.428 87.256C146.776 86.056 147.132 85.024 147.46 84.18C147.848 83.1244 148.327 82.1046 148.892 81.132C150.039 81.069 151.19 81.077 152.336 81.156C152.576 81.156 152.824 81.2 153.072 81.224C155.093 81.5085 157.097 81.9091 159.072 82.424C159.444 82.52 159.824 82.628 160.192 82.736C162.044 83.336 163.656 84.02 163.656 84.02Z" fill="#D6001C"/>
<path d="M159.768 75.5999C159.02 77.4479 157.964 80.8959 159.064 82.4519C158.351 82.9515 157.538 83.291 156.681 83.447C155.824 83.6031 154.944 83.572 154.1 83.3559C152.452 82.9839 152.592 81.8079 153.084 81.2439C155.328 81.1639 155.58 79.5599 155.484 77.9919L159.768 75.5999Z" fill="#EEC1BB"/>
<path opacity="0.2" d="M158.024 76.592L155.496 78C155.519 78.3666 155.513 78.7345 155.476 79.1C156.316 79.148 157.616 78.476 157.876 77.636C157.989 77.3001 158.039 76.9462 158.024 76.592Z" fill="black"/>
<path d="M154.888 68.9238C154.156 69.7238 153.424 71.7238 155.02 71.7038C156.616 71.6838 156.144 67.5518 154.888 68.9238Z" fill="#263238"/>
<path d="M161.036 73.3279C160.06 75.7999 159.612 77.2959 157.92 78.1639C155.372 79.4679 152.64 77.2639 152.86 74.5639C153.056 72.1119 154.624 68.4839 157.416 68.3119C158.032 68.2753 158.647 68.3948 159.204 68.6594C159.762 68.9239 160.243 69.325 160.604 69.8252C160.965 70.3255 161.194 70.9088 161.27 71.5211C161.345 72.1334 161.265 72.7549 161.036 73.3279Z" fill="#EEC1BB"/>
<path d="M161.42 68.572H159.6L160.472 70.216C160.768 70.26 160.18 71.264 160.436 71.268C160.436 71.268 159.236 73.452 159.984 74.928C162.672 74.712 164.572 72.6 163.352 71.076C164.132 69.74 162.768 68.748 161.42 68.572Z" fill="#263238"/>
<path d="M161.324 75.7479C161.131 76.016 160.887 76.2429 160.605 76.4153C160.324 76.5877 160.01 76.7021 159.684 76.7519C158.812 76.8799 158.484 76.0679 158.808 75.2959C159.108 74.5999 159.92 73.6959 160.756 73.9239C160.938 73.9764 161.104 74.0732 161.239 74.2057C161.375 74.3382 161.475 74.5021 161.531 74.6829C161.587 74.8637 161.598 75.0557 161.562 75.2415C161.526 75.4274 161.444 75.6014 161.324 75.7479Z" fill="#EEC1BB"/>
<path d="M155.372 72.3159C154.922 72.8391 154.401 73.2968 153.824 73.6759C153.934 73.8179 154.073 73.9351 154.232 74.0199C154.39 74.1047 154.565 74.1551 154.744 74.1679L155.372 72.3159Z" fill="#D4827D"/>
<path d="M157.948 72.2401C157.925 72.2356 157.904 72.2251 157.886 72.2096C157.868 72.1941 157.855 72.1743 157.848 72.1521C157.8 71.9996 157.718 71.8605 157.607 71.7459C157.495 71.6312 157.359 71.5443 157.208 71.4921C157.192 71.4878 157.176 71.4805 157.163 71.4704C157.15 71.4603 157.138 71.4476 157.13 71.4331C157.121 71.4186 157.116 71.4026 157.113 71.3859C157.111 71.3693 157.112 71.3523 157.116 71.3361C157.12 71.3198 157.128 71.3045 157.138 71.291C157.148 71.2776 157.16 71.2663 157.175 71.2577C157.189 71.2492 157.205 71.2436 157.222 71.2412C157.239 71.2389 157.256 71.2399 157.272 71.2441C157.461 71.3097 157.632 71.4189 157.771 71.5627C157.91 71.7065 158.013 71.881 158.072 72.072C158.084 72.1039 158.082 72.139 158.068 72.1698C158.054 72.2005 158.028 72.2243 157.996 72.236C157.98 72.2395 157.964 72.2409 157.948 72.2401Z" fill="#263238"/>
<path d="M153.932 70.832C153.907 70.8282 153.884 70.8154 153.868 70.796C153.844 70.772 153.831 70.7397 153.831 70.706C153.831 70.6723 153.844 70.64 153.868 70.616C154.003 70.4672 154.172 70.3531 154.361 70.2835C154.55 70.2138 154.752 70.1907 154.952 70.216C154.986 70.2228 155.015 70.2425 155.035 70.2709C155.054 70.2993 155.062 70.3341 155.056 70.368C155.049 70.4007 155.03 70.4294 155.002 70.4481C154.975 70.4668 154.941 70.4739 154.908 70.468C154.75 70.4459 154.588 70.4632 154.438 70.5183C154.288 70.5734 154.154 70.6647 154.048 70.784C154.035 70.8019 154.017 70.8159 153.997 70.8244C153.976 70.8329 153.954 70.8355 153.932 70.832Z" fill="#263238"/>
<path d="M154.452 74.6559C154.639 75.0787 154.796 75.5145 154.92 75.9599L155.16 75.9319C156.256 75.7959 156.72 75.3719 156.904 74.9439C156.989 74.7323 157.022 74.5031 157 74.2759C156.991 74.1474 156.964 74.0208 156.92 73.8999C156.384 74.2999 155.372 74.5199 154.824 74.6079C154.596 74.6439 154.452 74.6559 154.452 74.6559Z" fill="#263238"/>
<path d="M154.824 74.6079L154.972 74.9879C156.004 74.8599 156.712 74.6279 157 74.2759C156.991 74.1474 156.965 74.0208 156.92 73.8999C156.4 74.3159 155.372 74.5199 154.824 74.6079Z" fill="white"/>
<path d="M155.16 75.9318C156.256 75.7958 156.72 75.3718 156.904 74.9438C156.483 75.0046 156.077 75.14 155.704 75.3438C155.467 75.4794 155.277 75.6847 155.16 75.9318Z" fill="#DE5753"/>
<path d="M162.86 69.112C162.86 69.112 161.292 66.688 157.604 66.536C153.916 66.384 153.804 68.8401 155.052 69.6841L155.16 69.324C155.459 69.6853 155.835 69.975 156.26 70.172V69.6841C156.781 70.165 157.38 70.5532 158.032 70.832V70.216C158.032 70.216 158.992 71.016 160.988 71.24C162.984 71.464 163.772 70.652 162.86 69.112Z" fill="#263238"/>
<path d="M157.004 72.888C156.984 72.8883 156.964 72.8823 156.948 72.8708C156.931 72.8593 156.919 72.8429 156.912 72.824C156.898 72.7672 156.872 72.7141 156.835 72.6684C156.799 72.6228 156.753 72.5858 156.7 72.56C156.633 72.5324 156.559 72.5324 156.492 72.56C156.469 72.5721 156.442 72.5751 156.417 72.5685C156.392 72.5618 156.37 72.5459 156.356 72.524C156.347 72.5015 156.347 72.4765 156.355 72.4537C156.363 72.4309 156.379 72.4118 156.4 72.4C156.456 72.3673 156.518 72.3471 156.582 72.3409C156.646 72.3347 156.711 72.3426 156.772 72.364C156.855 72.4003 156.929 72.4552 156.987 72.5246C157.045 72.594 157.087 72.6759 157.108 72.764C157.116 72.789 157.114 72.816 157.103 72.8397C157.092 72.8635 157.072 72.8821 157.048 72.892L157.004 72.888Z" fill="#263238"/>
<path d="M154.732 72.2921C154.712 72.2918 154.693 72.2856 154.676 72.2742C154.66 72.2628 154.647 72.2467 154.64 72.2281C154.626 72.1712 154.6 72.1181 154.563 72.0725C154.527 72.0269 154.481 71.9899 154.428 71.9641C154.36 71.9443 154.287 71.9515 154.224 71.9841C154.201 71.9974 154.173 72.0011 154.147 71.9944C154.121 71.9876 154.098 71.971 154.084 71.9481C154.073 71.9248 154.07 71.8983 154.077 71.8734C154.083 71.8485 154.099 71.8267 154.12 71.8121C154.176 71.7804 154.238 71.7608 154.302 71.7546C154.366 71.7484 154.431 71.7557 154.492 71.7761C154.575 71.8123 154.649 71.8673 154.707 71.9367C154.765 72.0061 154.807 72.088 154.828 72.1761C154.836 72.201 154.834 72.2281 154.823 72.2518C154.812 72.2756 154.792 72.2942 154.768 72.3041L154.732 72.2921Z" fill="#263238"/>
<path d="M161.3 82.964C161.3 82.964 158.66 91.08 160.636 98.564L160.128 99.036C160.128 99.036 156.852 91.076 159.608 82.616L161.3 82.964Z" fill="#263238"/>
<path d="M152 81.124C152 81.124 145.88 88.944 144.736 96.216L144.848 94.528C144.848 94.528 144.808 88.04 150.168 81.04L152 81.124Z" fill="#263238"/>
<path d="M160.452 97.804L161.488 99.5919L160.8 101.924C160.307 100.714 159.97 99.4467 159.796 98.152L160.452 97.804Z" fill="#263238"/>
<path d="M164.552 104.828L157.9 102.028L157.472 107.628C157.472 107.628 164.968 107.768 165.072 107.812C165.176 107.856 164.552 104.828 164.552 104.828Z" fill="#263238"/>
<path opacity="0.4" d="M164.552 104.828L157.9 102.028L157.472 107.628C157.472 107.628 164.968 107.768 165.072 107.812C165.176 107.856 164.552 104.828 164.552 104.828Z" fill="white"/>
<path d="M157.892 107.3L158.332 102.496L159.46 100.692L163.908 104.556L163.136 107.208L157.892 107.3Z" fill="#263238"/>
<path opacity="0.7" d="M157.892 107.3L158.332 102.496L159.46 100.692L163.908 104.556L163.136 107.208L157.892 107.3Z" fill="white"/>
<path d="M159.056 100.168L158.976 106.344L157.472 107.652L166.308 111.34L167.836 109.76L167.9 104.188L159.056 100.168Z" fill="#263238"/>
<path opacity="0.5" d="M159.056 100.168L158.976 106.344L157.472 107.652L166.308 111.34L167.836 109.76L167.9 104.188L159.056 100.168Z" fill="white"/>
<path d="M164.612 106.292L164.372 109.012L161.764 107.468C161.764 107.468 162.128 105.068 163.364 105.292L164.612 106.292Z" fill="#EEC1BB"/>
<path d="M162.764 111.192L160.972 109.1L161.764 107.468L164.372 109.012L162.764 111.192Z" fill="#EEC1BB"/>
<path opacity="0.2" d="M162.256 87.824C161.984 88.66 161.732 89.496 161.5 90.324C161.42 90.616 161.34 90.908 161.264 91.196C160.704 90.036 160.972 88.08 160.972 88.08L162.256 87.824Z" fill="black"/>
<path d="M165.32 85.2359C166.121 86.0403 166.851 86.9115 167.504 87.8399C168.486 89.2118 169.36 90.6574 170.12 92.1639C170.643 93.1747 171.077 94.2294 171.416 95.3159C171.546 95.7271 171.624 96.1531 171.648 96.5839C171.676 97.4879 170.848 99.0279 169.748 100.636C169.128 101.552 168.424 102.492 167.748 103.352C166.264 105.236 164.948 106.732 164.948 106.732L162.948 105.332C162.948 105.332 163.936 103.532 164.948 101.588C165.488 100.56 166.032 99.4879 166.432 98.6239C166.714 98.0996 166.929 97.5419 167.072 96.9639C167.078 96.7869 167.064 96.6099 167.032 96.4359C166.88 95.5919 164.404 90.3359 161.004 88.0799L162.204 83.6799C163.04 83.4439 164.16 84.0959 165.32 85.2359Z" fill="#D6001C"/>
<path d="M124.708 95.3881C126.336 96.4521 123.148 100.988 119.456 100.352C115.764 99.716 116.204 96.7721 116.872 95.6841C117.54 94.5961 120.94 92.9241 124.708 95.3881Z" fill="#D6001C"/>
<path opacity="0.3" d="M124.708 95.3881C126.336 96.4521 123.148 100.988 119.456 100.352C115.764 99.716 116.204 96.7721 116.872 95.6841C117.54 94.5961 120.94 92.9241 124.708 95.3881Z" fill="black"/>
<path d="M119.828 94.324C119.828 94.324 124.204 97.548 124.68 100.352C125.156 103.156 119.696 105.356 115.74 104.888C111.784 104.42 108.3 97.436 108.3 97.436C108.3 97.436 116 97.6 119.828 94.324Z" fill="#D6001C"/>
<path opacity="0.2" d="M119.828 94.324C119.828 94.324 124.204 97.548 124.68 100.352C125.156 103.156 119.696 105.356 115.74 104.888C111.784 104.42 108.3 97.436 108.3 97.436C108.3 97.436 116 97.6 119.828 94.324Z" fill="black"/>
<path d="M119.2 96.1879C119.2 96.1879 118.944 92.2919 124.716 95.3879C124.716 95.3879 122.068 93.5879 119.58 93.9239C117.092 94.2599 114.5 96.9119 111.764 96.6519C109.028 96.3919 110.46 99.6359 110.46 99.6359C110.46 99.6359 116.556 99.1679 119.2 96.1879Z" fill="#D6001C"/>
<path d="M107.492 77.6879C108.784 74.8138 109.875 71.8534 110.756 68.8279C111.016 67.7479 110.868 66.6079 110.756 65.4519C110.584 63.9999 110.32 62.4759 110.048 60.9919L111.912 60.3159C113.098 62.5029 113.909 64.873 114.312 67.3279C114.447 68.2777 114.408 69.2442 114.196 70.1799C113.567 73.3755 112.534 76.4778 111.12 79.4119L107.52 77.6879H107.492Z" fill="#FFB573"/>
<path d="M106 77.928C107.78 76.684 109.288 73.376 109.288 73.376L112.948 75.62C112.948 75.62 111.256 79.432 110.888 81.904C110.68 83.404 106 77.928 106 77.928Z" fill="#263238"/>
<path opacity="0.2" d="M109.08 81.144C110.012 81.984 110.816 82.504 110.908 81.9C110.979 81.4345 111.078 80.9737 111.204 80.52C110.666 79.9316 110.027 79.4452 109.316 79.084C109.13 79.7541 109.051 80.4492 109.08 81.144Z" fill="black"/>
<path d="M104.24 153.564L106.872 153.712L108.284 147.68L105.656 147.532L104.24 153.564Z" fill="#FFB573"/>
<path d="M106.904 153.112L104.728 151.112C104.69 151.079 104.641 151.061 104.59 151.061C104.539 151.061 104.49 151.079 104.452 151.112L102.616 152.608C102.572 152.647 102.536 152.696 102.512 152.75C102.488 152.804 102.475 152.863 102.475 152.922C102.475 152.981 102.488 153.04 102.512 153.094C102.536 153.148 102.572 153.196 102.616 153.236C103.384 153.924 103.792 154.216 104.748 155.1C105.34 155.64 106.972 157.26 107.788 158.012C108.604 158.764 109.388 158.012 109.112 157.612C107.912 155.884 107.24 154.448 107.112 153.548C107.097 153.382 107.024 153.227 106.904 153.112Z" fill="#263238"/>
<g opacity="0.2">
<path opacity="0.2" d="M108.284 147.68L107.556 150.792L104.924 150.644L105.652 147.536L108.284 147.68Z" fill="black"/>
</g>
<path d="M108.4 78.18C108.4 78.18 112.092 82.784 112.276 94.156C108.156 95.188 103.876 95.452 101.876 95.956C100.992 91.688 100.372 89.072 96.18 80.908C97.5436 80.2465 98.9541 79.6863 100.4 79.232C101.94 78.7203 103.515 78.3193 105.112 78.032C106.204 77.8233 107.331 77.8739 108.4 78.18Z" fill="#FFB573"/>
<path d="M99.548 73.812C100.224 75.252 101.22 77.956 100.412 79.232C100.412 79.232 101.212 80.668 104.012 79.96C107.112 79.184 105.108 78.052 105.108 78.052C103.316 78.072 103.044 76.808 103.044 75.556L99.548 73.812Z" fill="#FFB573"/>
<path d="M100.4 79.2359C101.94 78.7225 103.514 78.3215 105.112 78.0359L105.428 77.9919C105.984 78.6079 106.352 79.6799 105.856 81.5159C105.856 81.5159 101.304 80.8879 99.788 79.4159C100 79.3639 100.208 79.2959 100.4 79.2359Z" fill="#FFB573"/>
<path opacity="0.2" d="M100.98 74.5239L103.06 75.5519C103.053 75.8453 103.074 76.1387 103.124 76.4279C102.452 76.4959 101.388 76.0279 101.148 75.3479C101.043 75.0854 100.987 74.8064 100.98 74.5239Z" fill="black"/>
<path d="M112.296 94.432C112.296 94.432 114.092 114.752 113.808 122.784C113.512 131.136 108.052 150.124 108.052 150.124L104.488 150.072C104.488 150.072 107.444 131.54 107.244 123.332C107.024 114.38 104.444 94.324 104.444 94.324L112.296 94.432Z" fill="#D6001C"/>
<path opacity="0.2" d="M112.296 94.432C112.296 94.432 114.092 114.752 113.808 122.784C113.512 131.136 108.052 150.124 108.052 150.124L104.488 150.072C104.488 150.072 107.444 131.54 107.244 123.332C107.024 114.38 104.444 94.324 104.444 94.324L112.296 94.432Z" fill="white"/>
<path d="M104.176 150.196L108.356 150.256L108.684 148.924L104.004 148.7L104.176 150.196Z" fill="#D6001C"/>
<path opacity="0.2" d="M107.6 99.416C110.152 104.74 107.92 114.352 106.94 117.928C106.54 112.532 105.828 105.928 105.268 101.088C105.716 98.36 106.432 96.96 107.6 99.416Z" fill="black"/>
<path d="M81.64 129.756L82.496 132.248L88.58 131.184L87.728 128.692L81.64 129.756Z" fill="#FFB573"/>
<path d="M83.2 132.336L83.032 129.38C83.0289 129.327 83.0084 129.276 82.9737 129.236C82.939 129.195 82.8921 129.167 82.84 129.156L80.464 128.648C80.4069 128.635 80.3473 128.635 80.2904 128.65C80.2336 128.665 80.1811 128.693 80.1375 128.732C80.0939 128.771 80.0604 128.821 80.04 128.876C80.0195 128.931 80.0127 128.99 80.02 129.048C80.092 130.08 80.184 130.58 80.256 131.88C80.3 132.68 80.344 134.972 80.408 136.076C80.472 137.18 81.572 137.316 81.648 136.876C81.976 134.848 82.512 133.44 83.06 132.788C83.1124 132.726 83.1517 132.654 83.1758 132.576C83.1998 132.499 83.2081 132.417 83.2 132.336Z" fill="#263238"/>
<g opacity="0.2">
<path opacity="0.2" d="M88.58 131.184L85.444 131.732L84.588 129.24L87.724 128.692L88.58 131.184Z" fill="black"/>
</g>
<path d="M109.336 94.4C109.336 94.4 106.136 115.304 104.032 123.156C101.86 131.32 86.484 131.808 86.484 131.808L84.964 128.584C84.964 128.584 93.968 126.324 97.916 120.984C99.712 112.184 101.516 94.292 101.516 94.292L109.336 94.4Z" fill="#D6001C"/>
<path opacity="0.2" d="M109.336 94.4C109.336 94.4 106.136 115.304 104.032 123.156C101.86 131.32 86.484 131.808 86.484 131.808L84.964 128.584C84.964 128.584 93.968 126.324 97.916 120.984C99.712 112.184 101.516 94.292 101.516 94.292L109.336 94.4Z" fill="white"/>
<path d="M84.788 128.272L86.104 132.24L87.524 132.276L86.208 127.8L84.788 128.272Z" fill="#D6001C"/>
<path d="M82.8 133.288C82.7933 133.521 82.8621 133.75 82.996 133.94C83.0348 133.984 83.0829 134.019 83.1368 134.043C83.1908 134.066 83.2492 134.078 83.308 134.076C83.3415 134.076 83.3745 134.068 83.4034 134.051C83.4323 134.034 83.456 134.009 83.472 133.98C83.632 133.672 83.032 132.584 82.964 132.46C82.9572 132.448 82.9473 132.439 82.9352 132.432C82.9232 132.426 82.9096 132.423 82.896 132.424C82.8842 132.425 82.873 132.43 82.8643 132.438C82.8555 132.446 82.8498 132.456 82.848 132.468C82.8061 132.739 82.79 133.014 82.8 133.288ZM83.372 133.8C83.3837 133.836 83.3837 133.876 83.372 133.912C83.3668 133.924 83.3577 133.934 83.3462 133.941C83.3346 133.947 83.3212 133.95 83.308 133.948C83.2698 133.951 83.2313 133.945 83.1958 133.931C83.1603 133.916 83.1288 133.893 83.104 133.864C82.948 133.692 82.9 133.26 82.964 132.664C83.1635 133.017 83.3027 133.401 83.376 133.8H83.372Z" fill="#D6001C"/>
<path d="M82.852 132.48C82.8501 132.489 82.8501 132.499 82.852 132.508C83.012 132.832 83.62 133.492 83.916 133.468C83.988 133.468 84.072 133.416 84.08 133.244C84.0829 133.18 84.0731 133.116 84.0512 133.055C84.0292 132.995 83.9955 132.939 83.952 132.892C83.6581 132.638 83.2968 132.476 82.912 132.424C82.9018 132.422 82.8911 132.422 82.8812 132.426C82.8713 132.429 82.8626 132.436 82.856 132.444C82.8526 132.449 82.8504 132.455 82.8497 132.461C82.849 132.468 82.8498 132.474 82.852 132.48ZM83.96 133.2V133.236C83.96 133.348 83.908 133.352 83.896 133.352C83.716 133.352 83.244 132.916 83.028 132.584C83.3392 132.635 83.6293 132.774 83.864 132.984C83.9187 133.044 83.9524 133.119 83.96 133.2Z" fill="#D6001C"/>
<path d="M107.32 154.124C107.473 154.29 107.677 154.4 107.9 154.436C107.956 154.437 108.012 154.424 108.063 154.398C108.113 154.372 108.156 154.334 108.188 154.288C108.211 154.262 108.227 154.231 108.233 154.197C108.239 154.163 108.236 154.128 108.224 154.096C108.108 153.748 106.972 153.428 106.84 153.396C106.828 153.392 106.814 153.392 106.802 153.396C106.79 153.401 106.779 153.409 106.772 153.42C106.765 153.431 106.762 153.443 106.762 153.456C106.762 153.469 106.765 153.481 106.772 153.492C106.935 153.719 107.119 153.93 107.32 154.124ZM108.036 154.04C108.068 154.064 108.091 154.098 108.104 154.136C108.112 154.147 108.116 154.16 108.116 154.174C108.116 154.187 108.112 154.201 108.104 154.212C108.083 154.242 108.055 154.267 108.022 154.285C107.989 154.302 107.953 154.311 107.916 154.312C107.7 154.312 107.364 154.032 107 153.568C107.37 153.666 107.72 153.825 108.036 154.04Z" fill="#D6001C"/>
<path d="M106.8 153.5C106.803 153.502 106.806 153.503 106.81 153.503C106.814 153.503 106.817 153.502 106.82 153.5C107.148 153.612 107.992 153.612 108.156 153.36C108.196 153.3 108.22 153.204 108.104 153.072C108.063 153.025 108.012 152.987 107.956 152.96C107.9 152.933 107.838 152.918 107.776 152.916C107.408 152.969 107.067 153.137 106.8 153.396C106.795 153.405 106.793 153.416 106.793 153.426C106.793 153.436 106.795 153.447 106.8 153.456C106.797 153.463 106.795 153.47 106.795 153.478C106.795 153.486 106.797 153.493 106.8 153.5ZM108 153.14C108.01 153.148 108.02 153.158 108.028 153.168C108.104 153.252 108.076 153.292 108.068 153.304C107.968 153.456 107.356 153.5 106.988 153.424C107.209 153.22 107.489 153.092 107.788 153.056C107.855 153.064 107.918 153.094 107.968 153.14H108Z" fill="#D6001C"/>
<path d="M101.392 94.6401L101.296 95.5681C101.272 95.6441 101.376 95.7081 101.5 95.7001L112.48 94.9001C112.576 94.9001 112.648 94.8401 112.644 94.7841L112.564 93.8681C112.564 93.8041 112.464 93.7561 112.36 93.7641L101.56 94.5641C101.528 94.5595 101.495 94.5642 101.465 94.5776C101.435 94.5911 101.41 94.6127 101.392 94.6401Z" fill="#D6001C"/>
<path opacity="0.7" d="M101.392 94.6401L101.296 95.5681C101.272 95.6441 101.376 95.7081 101.5 95.7001L112.48 94.9001C112.576 94.9001 112.648 94.8401 112.644 94.7841L112.564 93.8681C112.564 93.8041 112.464 93.7561 112.36 93.7641L101.56 94.5641C101.528 94.5595 101.495 94.5642 101.465 94.5776C101.435 94.5911 101.41 94.6127 101.392 94.6401Z" fill="white"/>
<path d="M102.328 95.716L102.04 95.736C101.98 95.736 101.932 95.716 101.928 95.68L101.836 94.48C101.836 94.444 101.876 94.412 101.936 94.408H102.224C102.28 94.408 102.332 94.408 102.332 94.464L102.428 95.664C102.432 95.68 102.4 95.712 102.328 95.716Z" fill="#D6001C"/>
<g opacity="0.2">
<path opacity="0.2" d="M102.328 95.716L102.04 95.736C101.98 95.736 101.932 95.716 101.928 95.68L101.836 94.48C101.836 94.444 101.876 94.412 101.936 94.408H102.224C102.28 94.408 102.332 94.408 102.332 94.464L102.428 95.664C102.432 95.68 102.4 95.712 102.328 95.716Z" fill="#D6001C"/>
</g>
<path d="M110.948 95.0798L110.656 95.1038C110.6 95.1038 110.552 95.0798 110.548 95.0478L110.452 93.8479C110.452 93.8119 110.496 93.7799 110.552 93.7759L110.844 93.7559C110.9 93.7559 110.952 93.7759 110.952 93.8079L111.048 95.0078C111.048 95.0438 111.004 95.0758 110.948 95.0798Z" fill="#D6001C"/>
<path opacity="0.2" d="M110.948 95.0798L110.656 95.1038C110.6 95.1038 110.552 95.0798 110.548 95.0478L110.452 93.8479C110.452 93.8119 110.496 93.7799 110.552 93.7759L110.844 93.7559C110.9 93.7559 110.952 93.7759 110.952 93.8079L111.048 95.0078C111.048 95.0438 111.004 95.0758 110.948 95.0798Z" fill="#D6001C"/>
<path d="M106.636 95.4L106.348 95.42C106.292 95.42 106.24 95.4 106.24 95.364L106.144 94.164C106.144 94.128 106.188 94.096 106.244 94.092L106.532 94.072C106.592 94.072 106.64 94.092 106.644 94.128L106.736 95.328C106.74 95.364 106.696 95.396 106.636 95.4Z" fill="#D6001C"/>
<path opacity="0.2" d="M106.636 95.4L106.348 95.42C106.292 95.42 106.24 95.4 106.24 95.364L106.144 94.164C106.144 94.128 106.188 94.096 106.244 94.092L106.532 94.072C106.592 94.072 106.64 94.092 106.644 94.128L106.736 95.328C106.74 95.364 106.696 95.396 106.636 95.4Z" fill="#D6001C"/>
<g opacity="0.2">
<path opacity="0.2" d="M102.328 95.716L102.04 95.736C101.98 95.736 101.932 95.716 101.928 95.68L101.836 94.48C101.836 94.444 101.876 94.412 101.936 94.408H102.224C102.28 94.408 102.332 94.408 102.332 94.464L102.428 95.664C102.432 95.68 102.4 95.712 102.328 95.716Z" fill="white"/>
<g opacity="0.2">
<path opacity="0.2" d="M102.328 95.716L102.04 95.736C101.98 95.736 101.932 95.716 101.928 95.68L101.836 94.48C101.836 94.444 101.876 94.412 101.936 94.408H102.224C102.28 94.408 102.332 94.408 102.332 94.464L102.428 95.664C102.432 95.68 102.4 95.712 102.328 95.716Z" fill="white"/>
</g>
<path opacity="0.2" d="M110.948 95.0798L110.656 95.1038C110.6 95.1038 110.552 95.0798 110.548 95.0478L110.452 93.8479C110.452 93.8119 110.496 93.7799 110.552 93.7759L110.844 93.7559C110.9 93.7559 110.952 93.7759 110.952 93.8079L111.048 95.0078C111.048 95.0438 111.004 95.0758 110.948 95.0798Z" fill="white"/>
<path opacity="0.2" d="M110.948 95.0798L110.656 95.1038C110.6 95.1038 110.552 95.0798 110.548 95.0478L110.452 93.8479C110.452 93.8119 110.496 93.7799 110.552 93.7759L110.844 93.7559C110.9 93.7559 110.952 93.7759 110.952 93.8079L111.048 95.0078C111.048 95.0438 111.004 95.0758 110.948 95.0798Z" fill="white"/>
<path opacity="0.2" d="M106.636 95.3998L106.348 95.4198C106.292 95.4198 106.24 95.3998 106.24 95.3638L106.144 94.1638C106.144 94.1278 106.188 94.0958 106.244 94.0918L106.532 94.0718C106.592 94.0718 106.64 94.0918 106.644 94.1278L106.736 95.3278C106.74 95.3638 106.696 95.3958 106.636 95.3998Z" fill="white"/>
<path opacity="0.2" d="M106.636 95.3998L106.348 95.4198C106.292 95.4198 106.24 95.3998 106.24 95.3638L106.144 94.1638C106.144 94.1278 106.188 94.0958 106.244 94.0918L106.532 94.0718C106.592 94.0718 106.64 94.0918 106.644 94.1278L106.736 95.3278C106.74 95.3638 106.696 95.3958 106.636 95.3998Z" fill="white"/>
</g>
<path d="M98.3 66.356C96.64 67.32 93.956 70.064 96.844 73.196C99.732 76.328 105.592 73.028 104.584 69.168C103.576 65.308 100.672 64.98 98.3 66.356Z" fill="#263238"/>
<path d="M97.252 71.6C98.452 73.924 98.908 74.936 100.652 75.632C103.28 76.6761 105.872 74.696 105.392 72.06C104.964 69.688 103.076 66.288 100.32 66.364C99.7123 66.3786 99.1183 66.5482 98.5945 66.8568C98.0707 67.1654 97.6345 67.6027 97.3271 68.1272C97.0198 68.6517 96.8516 69.2461 96.8384 69.8539C96.8253 70.4617 96.9676 71.0627 97.252 71.6Z" fill="#FFB573"/>
<path d="M97.716 69.1078C98.7841 69.5678 99.0161 72.1558 98.116 73.1958C96.256 73.1998 94.532 67.7318 97.716 69.1078Z" fill="#263238"/>
<path d="M103.016 70.2319C103.385 70.599 103.802 70.9139 104.256 71.1679C104.189 71.283 104.097 71.3818 103.987 71.4572C103.877 71.5325 103.752 71.5827 103.62 71.6039L103.016 70.2319Z" fill="#ED893E"/>
<path d="M97.568 74.068C97.9225 74.4298 98.4056 74.6368 98.912 74.644C99.58 74.644 99.74 74.004 99.404 73.444C99.068 72.884 98.396 72.372 97.804 72.644C97.6725 72.7013 97.5574 72.7906 97.4692 72.9038C97.3809 73.0169 97.3224 73.1503 97.299 73.2919C97.2755 73.4334 97.2879 73.5786 97.3348 73.7142C97.3818 73.8497 97.462 73.9714 97.568 74.068Z" fill="#FFB573"/>
<path d="M100.264 70.492C100.289 70.4846 100.312 70.4694 100.328 70.4486C100.345 70.4279 100.355 70.4025 100.356 70.376C100.392 70.1753 100.47 69.9845 100.584 69.8157C100.699 69.6469 100.847 69.5039 101.02 69.396C101.048 69.3779 101.067 69.3497 101.074 69.3174C101.08 69.2852 101.074 69.2516 101.056 69.224C101.038 69.1964 101.01 69.1771 100.977 69.1704C100.945 69.1636 100.912 69.1699 100.884 69.188C100.674 69.3148 100.494 69.4855 100.355 69.6885C100.217 69.8915 100.125 70.1219 100.084 70.364C100.083 70.3973 100.095 70.4297 100.117 70.4543C100.14 70.479 100.171 70.4939 100.204 70.496L100.264 70.492Z" fill="#263238"/>
<path d="M103.756 68.2799C103.777 68.2733 103.795 68.2619 103.811 68.2466C103.826 68.2313 103.837 68.2126 103.844 68.1919C103.853 68.1596 103.848 68.1252 103.832 68.096C103.815 68.0668 103.788 68.0453 103.756 68.0359C103.567 67.9784 103.366 67.9668 103.171 68.0023C102.976 68.0378 102.793 68.1193 102.636 68.24C102.624 68.2507 102.614 68.2638 102.606 68.2785C102.599 68.2932 102.595 68.3091 102.594 68.3255C102.592 68.3418 102.595 68.3582 102.6 68.3737C102.605 68.3893 102.613 68.4036 102.624 68.4159C102.635 68.4283 102.648 68.4384 102.663 68.4457C102.677 68.453 102.693 68.4573 102.71 68.4584C102.726 68.4595 102.742 68.4574 102.758 68.4522C102.773 68.4469 102.788 68.4387 102.8 68.428C102.925 68.3337 103.071 68.2708 103.226 68.2444C103.38 68.2179 103.539 68.2287 103.688 68.276C103.71 68.2832 103.733 68.2846 103.756 68.2799Z" fill="#263238"/>
<path d="M103.952 72.232C103.868 72.6049 103.809 72.9831 103.776 73.364H103.576C102.664 73.428 102.22 73.156 102.004 72.836C101.902 72.6771 101.841 72.496 101.824 72.308C101.808 72.202 101.808 72.0941 101.824 71.988C102.404 72.1982 103.021 72.2828 103.636 72.236C103.832 72.244 103.952 72.232 103.952 72.232Z" fill="#263238"/>
<path d="M103.64 72.2519L103.58 72.5839C102.724 72.6399 102.108 72.5639 101.824 72.3239C101.808 72.2179 101.808 72.11 101.824 72.0039C102.405 72.2147 103.024 72.2992 103.64 72.2519Z" fill="white"/>
<path d="M103.576 73.38C102.664 73.444 102.22 73.172 102.004 72.852C102.352 72.835 102.699 72.8783 103.032 72.98C103.251 73.0532 103.441 73.1931 103.576 73.38Z" fill="#DE5753"/>
<path d="M101.772 70.232L102.036 70.012C102.036 70.012 101.972 70.384 101.728 70.372C101.597 70.3408 101.458 70.3612 101.342 70.4289C101.225 70.4966 101.138 70.6065 101.1 70.736C101.088 70.088 101.6 70.18 101.772 70.232Z" fill="#263238"/>
<path d="M103.844 69.336L104.108 69.116C104.108 69.116 104.044 69.488 103.8 69.476C103.669 69.4459 103.531 69.4667 103.414 69.5342C103.298 69.6018 103.211 69.7111 103.172 69.84C103.16 69.2 103.668 69.284 103.844 69.336Z" fill="#263238"/>
<path d="M98.536 70.992C98.536 70.992 99.376 69.336 98.632 67.884C99.0586 68.3401 99.3205 68.9258 99.376 69.548C99.7088 69.1218 100.096 68.7412 100.528 68.416C100.434 67.8679 100.237 67.3427 99.948 66.868C100.183 67.0379 100.38 67.2547 100.526 67.5047C100.673 67.7546 100.766 68.0322 100.8 68.32C100.835 67.8026 100.709 67.2872 100.44 66.844C100.879 67.1355 101.206 67.5689 101.364 68.072L102.256 67.74C102.256 67.74 102.056 66.916 101.64 66.692C102.039 66.9131 102.399 67.1967 102.708 67.532C102.708 67.532 103.544 67.472 103.736 67.72C103.562 67.3335 103.301 66.9924 102.973 66.7232C102.646 66.4541 102.261 66.264 101.848 66.168C102.576 66.2279 103.276 66.4745 103.88 66.884C103.88 66.884 102.756 65.024 99.692 65.816C96.628 66.608 96 68.8 95.964 69.72C95.928 70.64 98.536 70.992 98.536 70.992Z" fill="#263238"/>
<path d="M96.844 67.9999C96.1531 67.5123 95.3472 67.2131 94.5055 67.1317C93.6638 67.0504 92.8155 67.1896 92.044 67.5359C89.196 68.6959 90.672 74.7919 93.944 77.2839C97.216 79.7759 98.992 78.2438 98.992 78.2438C98.992 78.2438 97.224 78.9718 95.584 76.9998C96.0743 77.3416 96.6328 77.5732 97.221 77.6788C97.8093 77.7845 98.4134 77.7616 98.992 77.6118L98.052 77.3758L98.992 77.0279C98.5798 77.0958 98.1582 77.0795 97.7525 76.9798C97.3469 76.8801 96.9657 76.6991 96.632 76.4478C96.632 76.4478 97.732 76.7638 98.448 76.4478C98.448 76.4478 94.788 76.2878 93.784 72.9158C92.78 69.5438 96.396 70.0439 96.396 70.0439L96.844 67.9999Z" fill="#263238"/>
<path d="M109.86 60.5798L108.692 58.7358L111.36 58.9838C111.36 58.9838 112.04 60.5318 111.36 61.3838L111.104 61.3518C110.852 61.3232 110.61 61.239 110.395 61.1055C110.18 60.972 109.997 60.7925 109.86 60.5798Z" fill="#FFB573"/>
<path d="M108.564 56.784L110.808 56.6479L111.36 58.984L108.692 58.736L108.564 56.784Z" fill="#FFB573"/>
<path d="M113.1 92.0719L101.224 95.3879C100.548 92.8838 99.7087 90.4265 98.712 88.0319C98.156 86.6599 97.62 85.4439 97.18 84.4319C97.18 84.3919 97.148 84.3519 97.128 84.3119C96.328 82.4199 95.848 81.2119 96.184 80.9199C96.984 80.2279 99.808 79.1919 99.808 79.1919C99.808 79.1919 103.288 81.2239 105.328 80.3639C106.692 79.7879 105.728 77.9639 105.728 77.9639C107.272 76.7199 107.944 76.7999 108.7 77.6759C109.124 78.2161 109.474 78.8107 109.74 79.4439C111.364 83.0439 112.66 89.6639 113.012 91.5639C113.036 91.6879 113.056 91.7959 113.068 91.8759C113.068 91.9199 113.068 91.9559 113.068 91.9839C113.068 92.0119 113.1 92.0719 113.1 92.0719Z" fill="#263238"/>
<path opacity="0.7" d="M113.1 92.072L101.224 95.388C100.548 92.8838 99.7088 90.4266 98.712 88.032C98.156 86.66 97.62 85.444 97.18 84.432C97.1766 84.3861 97.1644 84.3412 97.144 84.3L98.8 84.4L99.224 84.424C99.224 84.424 99.412 80.8879 100.092 79.9599C100.092 79.9599 103.444 81.5919 105.388 80.7599C107.332 79.9279 106.428 78.252 106.428 78.252C107.605 78.3849 108.734 78.7963 109.72 79.452H109.74C111.548 83.36 112.824 90.552 113.048 91.852C113.048 91.896 113.048 91.932 113.048 91.96C113.048 91.988 113.1 92.072 113.1 92.072Z" fill="white"/>
<path opacity="0.2" d="M98.7121 88.0318C98.156 86.6598 97.62 85.4438 97.18 84.4318C97.18 84.3918 97.1481 84.3518 97.1281 84.3118C97.6022 84.0398 98.1469 83.9158 98.692 83.9558C98.692 83.9558 98.7401 84.1238 98.7961 84.4158C99.0426 85.6119 99.0139 86.8485 98.7121 88.0318Z" fill="black"/>
<path d="M99.2 83.808C97.368 86.708 95.048 89.36 91.896 90.876C91.6165 91.0111 91.3125 91.0878 91.0024 91.1016C90.6924 91.1155 90.3827 91.066 90.0924 90.9564C89.802 90.8468 89.537 90.6792 89.3134 90.4639C89.0899 90.2486 88.9125 89.9901 88.792 89.704C88.168 88.404 88.04 87.188 87.856 85.884C87.681 84.3319 87.6155 82.7694 87.66 81.208L89.628 80.988C90.028 82.428 90.428 83.888 90.828 85.284C91.112 86.188 91.388 87.244 91.848 87.964C91.872 87.992 91.88 87.992 91.868 87.964C91.6645 87.7449 91.3958 87.5974 91.1017 87.5433C90.8077 87.4893 90.504 87.5316 90.236 87.664C92.452 86.312 94.292 83.896 95.788 81.716L99.204 83.8L99.2 83.808Z" fill="#FFB573"/>
<path d="M96.42 80.8001C95.364 81.1761 93.516 84.0601 93.516 84.0601L96.868 87.9201C96.868 87.9201 99.356 85.6241 99.24 84.1681C99.124 82.7121 97.62 80.3601 96.42 80.8001Z" fill="#263238"/>
<path d="M98.668 79.5039C98.668 79.5039 114.392 84.7599 120.3 95.1039L119.772 96.6519C119.772 96.6519 116.628 87.0519 98.052 79.8919L98.668 79.5039Z" fill="#D6001C"/>
<path opacity="0.3" d="M98.668 79.5039C98.668 79.5039 114.392 84.7599 120.3 95.1039L119.772 96.6519C119.772 96.6519 116.628 87.0519 98.052 79.8919L98.668 79.5039Z" fill="black"/>
<path d="M87.064 75.988L94.336 78.824L93.988 85.524L85.6281 82.252L86.256 76.156L87.064 75.988Z" fill="#D6001C"/>
<path opacity="0.2" d="M87.064 75.988L94.336 78.824L93.988 85.524L85.6281 82.252L86.256 76.156L87.064 75.988Z" fill="black"/>
<path d="M94.004 79.0999L93.504 84.9039L91.776 85.4079L91.584 78.9719L94.004 79.0999Z" fill="#D6001C"/>
<path opacity="0.7" d="M94.004 79.0999L93.504 84.9039L91.776 85.4079L91.584 78.9719L94.004 79.0999Z" fill="white"/>
<path d="M94.336 78.824L93.188 79.38L92.624 85.644L85.04 82.592L86.256 76.156L87.064 75.988L94.336 78.824Z" fill="#D6001C"/>
<path d="M91.34 86.884C91.156 86.38 90.98 85.836 90.82 85.284C90.42 83.888 90.02 82.428 89.62 80.988L87.652 81.208C87.6076 82.7694 87.6731 84.3319 87.848 85.884C87.9398 86.6923 88.0827 87.4939 88.276 88.284C88.3918 88.7697 88.5622 89.2407 88.784 89.688C88.8668 89.8514 88.9645 90.0067 89.076 90.152C89.2552 90.3957 89.4776 90.6045 89.732 90.768L89.868 90.848L90.04 90.932L90.22 91C90.291 91.0237 90.363 91.0438 90.436 91.06C90.7378 91.126 91.0503 91.126 91.352 91.06C91.4889 91.0293 91.6227 90.9864 91.752 90.932L91.896 90.864L92.052 90.792C92.2 90.72 92.34 90.644 92.48 90.572C92.476 90.584 91.728 86.572 91.34 86.884Z" fill="#FFB573"/>
<path d="M87.644 81.5318L87.38 78.3718L89.884 79.9158C89.884 79.9158 89.796 81.7718 88.708 82.2878L87.644 81.5318Z" fill="#FFB573"/>
<path d="M88.576 76.2559L90.604 77.6639L89.884 79.9158L87.38 78.3759L88.576 76.2559Z" fill="#FFB573"/>
<path d="M66.724 102.4C66.724 102.4 60.288 105.024 57.068 104.548C53.848 104.072 52.956 112.148 57.068 113.94C61.18 115.732 65.956 115.284 67.672 114.164C69.388 113.044 66.724 102.4 66.724 102.4Z" fill="#D6001C"/>
<path opacity="0.2" d="M66.724 102.4C66.724 102.4 60.288 105.024 57.068 104.548C53.848 104.072 52.956 112.148 57.068 113.94C61.18 115.732 65.956 115.284 67.672 114.164C69.388 113.044 66.724 102.4 66.724 102.4Z" fill="black"/>
<path d="M66.724 102.4C66.724 102.4 72.048 107.08 72.368 108.504C72.688 109.928 68.832 114.464 66.988 114.148C65.144 113.832 65.788 102.88 65.788 102.88L66.724 102.4Z" fill="#D6001C"/>
<path opacity="0.2" d="M66.724 102.4C66.724 102.4 72.048 107.08 72.368 108.504C72.688 109.928 68.832 114.464 66.988 114.148C65.144 113.832 65.788 102.88 65.788 102.88L66.724 102.4Z" fill="white"/>
<path d="M53.76 85.664C56.644 83.5 59.76 81.432 62.604 79.264C63.404 78.232 63.684 76.924 64.028 75.628C64.428 73.976 64.736 72.22 64.992 70.5L66.864 70.532C67.036 72.3854 67.036 74.2506 66.864 76.104C66.616 78.084 66.284 80.432 64.752 81.932C61.9582 84.3618 59.0295 86.632 55.98 88.732L53.78 85.652L53.76 85.664Z" fill="#DC897C"/>
<path d="M55.6 90.9241C58.072 91.0241 63.296 84.8481 63.296 84.8481L59.824 81.4441C57.8655 82.4731 56.0479 83.7503 54.416 85.2441C52 87.6001 52.852 90.8001 55.6 90.9241Z" fill="#263238"/>
<path opacity="0.2" d="M55.6 90.9241C58.072 91.0241 63.296 84.8481 63.296 84.8481L59.824 81.4441C57.8655 82.4731 56.0479 83.7503 54.416 85.2441C52 87.6001 52.852 90.8001 55.6 90.9241Z" fill="white"/>
<path opacity="0.1" d="M55.908 90.9119C55.148 90.0799 55.2 88.8759 56.708 87.2199C58.2067 85.6841 59.9387 84.3949 61.84 83.3999L63.32 84.8479C63.32 84.8479 58.476 90.5999 55.908 90.9119Z" fill="black"/>
<path d="M64.928 72.4001L64.288 68.7601L67.5159 68.7161C67.5159 68.7161 68.3159 71.1961 66.656 72.5561L64.928 72.4001Z" fill="#E4897B"/>
<path d="M65.1 66.272L67.516 66.812V68.728L64.288 68.772L65.1 66.272Z" fill="#E4897B"/>
<path d="M49.244 162.54L45.88 162.596C45.8252 162.597 45.7723 162.616 45.7301 162.651C45.6879 162.686 45.659 162.734 45.648 162.788L45.14 165.26C45.1284 165.313 45.1277 165.368 45.1379 165.421C45.148 165.474 45.1689 165.524 45.1992 165.569C45.2295 165.614 45.2686 165.653 45.3141 165.682C45.3596 165.711 45.4106 165.731 45.464 165.74C45.4945 165.744 45.5255 165.744 45.556 165.74C46.644 165.704 47.432 165.628 48.8 165.604C49.64 165.604 52.18 165.64 53.344 165.604C54.508 165.568 54.636 164.436 54.144 164.34C52.004 163.908 50.388 163.288 49.696 162.688C49.5684 162.585 49.4077 162.533 49.244 162.54Z" fill="#263238"/>
<path d="M77.6 162.54L74.24 162.596C74.1846 162.596 74.1307 162.615 74.0877 162.65C74.0447 162.685 74.0151 162.734 74.004 162.788L73.5 165.26C73.4884 165.313 73.4875 165.367 73.4974 165.42C73.5074 165.473 73.5279 165.523 73.5578 165.568C73.5877 165.613 73.6263 165.651 73.6714 165.681C73.7164 165.71 73.767 165.73 73.82 165.74C73.8506 165.744 73.8815 165.744 73.912 165.74C75 165.704 75.792 165.628 77.156 165.604C77.996 165.604 80.536 165.64 81.7 165.604C82.864 165.568 82.996 164.436 82.5 164.34C80.36 163.908 78.744 163.288 78.052 162.688C77.9244 162.585 77.7637 162.533 77.6 162.54Z" fill="#263238"/>
<path d="M45.132 162.712H49.712C49.712 162.712 55.544 143.488 56.044 138.584C56.544 133.68 56.728 121.384 56.728 121.384V121.408C56.928 121.672 58.656 124.104 60.648 126.932C63.252 130.632 66.308 135.008 66.952 136.08C68.84 139.24 73.464 162.696 73.464 162.696H78.04C78.04 162.696 76.888 141.7 74.536 134.78C72.184 127.86 62.016 112.748 61.576 111.936C61.012 110.9 59.628 107.612 59.628 107.612L45.904 109.52C45.904 109.52 45.68 111.844 45.696 113.876C45.76 121.5 47.2 131.804 47.432 134.576C47.884 139.86 45.132 162.712 45.132 162.712Z" fill="#D6001C"/>
<path d="M56.4 85.476C56.4 85.476 60.508 92.8 59.636 107.628L45.916 109.536C45.516 107.444 45.424 96.984 42.012 87.34C43.4887 86.8436 44.9958 86.4428 46.524 86.14C48.4508 85.7602 50.3981 85.4931 52.356 85.34C53.7054 85.2805 55.0575 85.326 56.4 85.476Z" fill="#263238"/>
<path opacity="0.2" d="M59.648 107.628L45.924 109.536C45.68 108.228 45.548 103.636 44.648 98.0161C44.408 96.5161 44.112 94.9401 43.74 93.3401C43.2791 91.3095 42.7048 89.3064 42.02 87.3401C43.4961 86.8416 45.0033 86.4407 46.532 86.1401C48.4601 85.7601 50.4088 85.493 52.368 85.3401C53.7182 85.2925 55.0701 85.3473 56.412 85.504C56.412 85.504 60.516 92.8001 59.648 107.628Z" fill="white"/>
<path d="M45.72 79.4639C46.492 81.2359 47.604 84.5439 46.58 86.0639C48.52 86.4279 49.912 86.6519 51.712 87.6639C51.996 86.4079 52.332 84.7879 52.332 84.7879C50.16 84.7519 49.872 83.1879 49.932 81.6919L45.72 79.4639Z" fill="#E4897B"/>
<path opacity="0.2" d="M47.432 80.376L49.912 81.696C49.8995 82.05 49.9156 82.4045 49.96 82.756C49.16 82.816 47.876 82.192 47.608 81.384C47.4869 81.0619 47.4272 80.72 47.432 80.376Z" fill="black"/>
<path opacity="0.5" d="M45.132 162.712H49.712C49.712 162.712 55.544 143.488 56.044 138.584C56.544 133.68 56.728 121.384 56.728 121.384V121.408C56.928 121.672 58.656 124.104 60.648 126.932C63.252 130.632 66.308 135.008 66.952 136.08C68.84 139.24 73.464 162.696 73.464 162.696H78.04C78.04 162.696 76.888 141.7 74.536 134.78C72.184 127.86 62.016 112.748 61.576 111.936C61.012 110.9 59.628 107.612 59.628 107.612L45.904 109.52C45.904 109.52 45.68 111.844 45.696 113.876C45.76 121.5 47.2 131.804 47.432 134.576C47.884 139.86 45.132 162.712 45.132 162.712Z" fill="white"/>
<path d="M44.816 86.508L45.956 85.084L49.648 85.796L51.524 87.944L51.76 85.464L52.452 84.636L53.968 85.288V86.84L52.888 86.488L51.956 88.656L49.008 87.444L48.352 88.28L44.816 86.508Z" fill="#263238"/>
<path opacity="0.3" d="M44.816 86.508L45.956 85.084L49.648 85.796L51.524 87.944L51.76 85.464L52.452 84.636L53.968 85.288V86.84L52.888 86.488L51.956 88.656L49.008 87.444L48.352 88.28L44.816 86.508Z" fill="white"/>
<path opacity="0.1" d="M51.956 88.656L52.312 86.064L53.968 86.84L52.888 86.488L51.956 88.656Z" fill="black"/>
<path opacity="0.1" d="M51.956 88.6561L49.224 86.644L48.352 88.28L49.008 87.444L51.956 88.6561Z" fill="black"/>
<path opacity="0.1" d="M44.648 98C44.408 96.5 44.112 94.924 43.74 93.324C44.1828 92.7748 44.812 92.4075 45.508 92.292C45.508 92.292 45.884 95.94 44.648 98Z" fill="black"/>
<path opacity="0.2" d="M56.728 121.392V121.416C56.928 121.68 58.656 124.112 60.648 126.94C60.8451 125.409 60.5848 123.855 59.9001 122.472C59.2154 121.089 58.1367 119.939 56.8 119.168L56.728 121.392Z" fill="black"/>
<path d="M49.784 72.02C51.16 72.372 52.5 75.828 51.016 76.888C49.532 77.948 47.2 71.36 49.784 72.02Z" fill="#263238"/>
<path d="M44.664 76.924C45.656 79.324 46.112 80.796 47.796 81.68C48.3406 81.9724 48.9547 82.1104 49.572 82.0791C50.1893 82.0478 50.7863 81.8485 51.2986 81.5026C51.8108 81.1567 52.2189 80.6774 52.4785 80.1165C52.7382 79.5556 52.8397 78.9344 52.772 78.32C52.552 75.948 50.972 72.4 48.204 72.16C47.6066 72.0911 47.0016 72.1806 46.4497 72.4195C45.8978 72.6583 45.4185 73.0382 45.0598 73.5209C44.7011 74.0036 44.4757 74.5721 44.4063 75.1695C44.3368 75.7668 44.4257 76.3719 44.664 76.924Z" fill="#E4897B"/>
<path d="M46.496 73.4279L45.944 71.2639C45.4393 71.626 44.8331 71.8192 44.212 71.8159C41.508 71.6919 39.836 73.7239 41.312 74.9479C40.188 75.7079 41.176 77.2559 42.196 78.1719C43.608 79.4439 44.948 79.9159 45.66 79.0879C46.336 78.5839 45.976 75.9759 45.548 75.0599C44.908 73.6879 46.496 73.4279 46.496 73.4279Z" fill="#263238"/>
<path d="M44.552 79.6441C45.044 80.0632 45.6658 80.2992 46.312 80.3121C47.112 80.3121 47.176 79.5401 46.648 78.9041C46.172 78.3321 45.176 77.6441 44.504 77.9561C43.832 78.2681 43.928 79.1201 44.552 79.6441Z" fill="#E4897B"/>
<path d="M48.668 76.472C48.736 76.672 48.9 76.804 49.032 76.764C49.164 76.724 49.216 76.528 49.148 76.328C49.08 76.128 48.916 76 48.784 76.04C48.652 76.08 48.6 76.272 48.668 76.472Z" fill="#263238"/>
<path d="M50.956 75.7839C51.024 75.9839 51.188 76.1119 51.32 76.0719C51.452 76.0319 51.504 75.8359 51.436 75.6359C51.368 75.4359 51.204 75.3079 51.072 75.3479C50.94 75.3879 50.888 75.5999 50.956 75.7839Z" fill="#263238"/>
<path d="M50.264 76.1001C50.7143 76.6404 51.2349 77.118 51.812 77.5201C51.7052 77.6603 51.5689 77.7753 51.4126 77.8569C51.2564 77.9385 51.0841 77.9846 50.908 77.9921L50.264 76.1001Z" fill="#DE5753"/>
<path d="M47.712 75.9561C47.6924 75.962 47.6715 75.962 47.652 75.9561C47.6364 75.9507 47.622 75.9423 47.6097 75.9313C47.5974 75.9203 47.5874 75.9069 47.5804 75.892C47.5733 75.8771 47.5692 75.861 47.5685 75.8445C47.5677 75.828 47.5703 75.8116 47.576 75.7961C47.6361 75.6109 47.7403 75.4432 47.8796 75.3073C48.019 75.1714 48.1894 75.0714 48.376 75.0161C48.392 75.0125 48.4086 75.0122 48.4247 75.0152C48.4408 75.0181 48.4562 75.0242 48.47 75.0332C48.4838 75.0421 48.4956 75.0537 48.5049 75.0672C48.5142 75.0807 48.5206 75.096 48.524 75.1121C48.5301 75.1438 48.5241 75.1767 48.507 75.2041C48.49 75.2316 48.4632 75.2516 48.432 75.2601C48.2849 75.3047 48.1508 75.3845 48.0414 75.4925C47.932 75.6005 47.8505 75.7335 47.804 75.8801C47.7963 75.8994 47.7838 75.9166 47.7677 75.9299C47.7516 75.9431 47.7325 75.9522 47.712 75.9561Z" fill="#263238"/>
<path d="M51.676 74.708C51.6559 74.7105 51.6354 74.7085 51.6161 74.7023C51.5967 74.6961 51.579 74.6857 51.564 74.672C51.4559 74.5553 51.3226 74.4648 51.1743 74.4073C51.026 74.3497 50.8665 74.3267 50.708 74.34C50.6757 74.3458 50.6423 74.3385 50.6153 74.3198C50.5883 74.301 50.5699 74.2723 50.564 74.24C50.5594 74.2072 50.5676 74.1739 50.587 74.147C50.6064 74.1201 50.6354 74.1019 50.668 74.096C50.8655 74.0743 51.0654 74.0992 51.2515 74.1686C51.4377 74.2381 51.605 74.3502 51.74 74.496C51.7516 74.5075 51.7608 74.5212 51.7671 74.5363C51.7734 74.5514 51.7767 74.5676 51.7767 74.584C51.7767 74.6003 51.7734 74.6165 51.7671 74.6316C51.7608 74.6467 51.7516 74.6605 51.74 74.672C51.7232 74.6906 51.7007 74.7032 51.676 74.708Z" fill="#263238"/>
<path d="M44.108 72.124C44.108 72.124 45.496 68.368 48.992 68.66C48.6687 68.773 48.37 68.9468 48.112 69.172C48.112 69.172 51.052 68.54 52.24 70.512L51.628 70.252C51.628 70.252 52.6 71.884 51.856 73.136L51.62 72.584C51.62 72.584 50.592 74.244 48.72 74.044L49.308 73.644C49.308 73.644 46.168 73.94 45.308 73.244C44.8671 72.917 44.4646 72.5413 44.108 72.124Z" fill="#263238"/>
<path d="M51.508 78.628C50.4418 78.5478 49.3704 78.5678 48.308 78.688C48.64 79.376 49.2 79.912 50.404 79.804C50.5556 79.8055 50.7058 79.7755 50.8452 79.716C50.9847 79.6565 51.1102 79.5687 51.214 79.4582C51.3177 79.3476 51.3974 79.2168 51.448 79.0739C51.4986 78.931 51.5191 78.7791 51.508 78.628Z" fill="#263238"/>
<path d="M49.796 79.2919C50.2568 79.2279 50.726 79.3119 51.136 79.5319C50.9244 79.6959 50.6674 79.7909 50.4 79.8039C49.9404 79.8698 49.4718 79.7856 49.064 79.5639C49.2741 79.3999 49.5297 79.3048 49.796 79.2919Z" fill="#A02724"/>
<path d="M51.4 78.6161C51.3873 78.7082 51.3486 78.7948 51.2884 78.8657C51.2281 78.9366 51.1489 78.9888 51.06 79.0161C50.3625 79.0725 49.6615 79.0725 48.964 79.0161C48.8524 79.0153 48.7428 78.9867 48.645 78.9329C48.5473 78.8792 48.4644 78.8019 48.404 78.7081C49.399 78.6029 50.4004 78.5721 51.4 78.6161Z" fill="white"/>
<path d="M48.852 98.4L45.56 94.592L43.24 102.336C43.24 102.336 44.512 105.176 44.56 105.036C44.608 104.896 48.852 98.4 48.852 98.4Z" fill="#D6001C"/>
<path d="M48.42 98.4759L45.56 95.2799L43.932 94.8999L43.464 101.568L45.348 102.88L48.42 98.4759Z" fill="#D6001C"/>
<path opacity="0.7" d="M48.42 98.4759L45.56 95.2799L43.932 94.8999L43.464 101.568L45.348 102.88L48.42 98.4759Z" fill="white"/>
<path d="M43.88 94.168L46.82 97.932L48.852 98.38L45.756 108.66L42.82 108.972L40.964 104.7L43.88 94.168Z" fill="#D6001C"/>
<path opacity="0.2" d="M43.88 94.168L46.82 97.932L48.852 98.38L45.756 108.66L42.82 108.972L40.964 104.7L43.88 94.168Z" fill="white"/>
<path d="M46.708 98.548L43.108 95.012L41.404 102.916C41.404 102.916 42.9 105.644 42.936 105.5C42.972 105.356 46.708 98.548 46.708 98.548Z" fill="#D6001C"/>
<path opacity="0.4" d="M46.708 98.548L43.108 95.012L41.404 102.916C41.404 102.916 42.9 105.644 42.936 105.5C42.972 105.356 46.708 98.548 46.708 98.548Z" fill="black"/>
<path d="M46.288 98.68L43.184 95.716L41.532 95.468L41.588 102.152L43.572 103.312L46.288 98.68Z" fill="#D6001C"/>
<path opacity="0.7" d="M46.288 98.68L43.184 95.716L41.532 95.468L41.588 102.152L43.572 103.312L46.288 98.68Z" fill="white"/>
<path d="M41.424 94.74L44.652 98.264L46.708 98.548L44.436 109.044L41.532 109.58L39.344 105.472L41.424 94.74Z" fill="#D6001C"/>
<path opacity="0.2" d="M41.424 94.74L44.652 98.264L46.708 98.548L44.436 109.044L41.532 109.58L39.344 105.472L41.424 94.74Z" fill="black"/>
<path d="M43.964 90.7999C41.7 93.1719 39.188 95.5279 37.34 98.2319C37.264 98.3559 37.184 98.5039 37.152 98.5639C37.1655 98.4885 37.1655 98.4113 37.152 98.3359C37.152 98.2599 37.096 98.2479 37.108 98.2839C37.256 98.6519 37.908 99.1119 38.308 99.3879C39.6336 100.202 41.0205 100.912 42.456 101.512L42 103.308C40.2477 103.105 38.534 102.649 36.912 101.956C34.704 101.028 32.872 99.0519 34.316 96.5519C35.307 94.8185 36.4876 93.2005 37.836 91.7279C38.96 90.4519 40.104 89.2479 41.34 88.0679L43.976 90.7799L43.964 90.7999Z" fill="#DC897C"/>
<path d="M43.928 87.0719C40.012 86.2719 35.264 93.6799 35.264 93.6799L39.2 96.7999C41.2192 95.5236 43.1345 94.0898 44.928 92.5119C47.404 90.2239 46.532 87.5999 43.928 87.0719Z" fill="#263238"/>
<path opacity="0.2" d="M43.928 87.0719C40.012 86.2719 35.264 93.6799 35.264 93.6799L39.2 96.7999C41.2192 95.5236 43.1345 94.0898 44.928 92.5119C47.404 90.2239 46.532 87.5999 43.928 87.0719Z" fill="white"/>
<path d="M41.452 101.128L45.128 100.728L44.948 103.956C44.948 103.956 42.42 104.588 41.176 102.828L41.452 101.128Z" fill="#E4897B"/>
<path d="M47.568 101.728L46.856 104.1L44.948 103.968L45.128 100.74L47.568 101.728Z" fill="#E4897B"/>
<path d="M53.484 85.032C53.484 85.032 61.596 92.68 65.884 103.124L66.708 102.4C66.708 102.4 61.6 91.52 54.888 84.864L53.484 85.032Z" fill="#D6001C"/>
</svg>
