<svg width="300" height="300" viewBox="0 0 300 300" fill="none" xmlns="http://www.w3.org/2000/svg">
<path d="M298.752 269.53C305.987 255.211 285.308 183.615 141.923 183.615C38.4274 183.615 -9.07413 242.218 1.42751 271.917" fill="url(#paint0_radial_67179_170925)"/>
<mask id="mask0_67179_170925" style="mask-type:alpha" maskUnits="userSpaceOnUse" x="0" y="183" width="300" height="89">
<path d="M298.752 269.53C305.987 255.211 285.308 183.615 141.923 183.615C38.4274 183.615 -9.07413 242.218 1.42751 271.917" fill="white"/>
</mask>
<g mask="url(#mask0_67179_170925)">
<ellipse opacity="0.671968" cx="119.808" cy="223.765" rx="7.88551" ry="4.38001" fill="url(#paint1_linear_67179_170925)"/>
<ellipse opacity="0.729957" cx="200.292" cy="217.079" rx="12.4416" ry="6.83282" fill="url(#paint2_linear_67179_170925)"/>
<ellipse opacity="0.729957" cx="58.7033" cy="198.857" rx="12.4416" ry="6.83282" fill="url(#paint3_linear_67179_170925)"/>
</g>
<g opacity="0.320685">
<ellipse cx="232.689" cy="64.1958" rx="8.41121" ry="8.40963" fill="url(#paint4_linear_67179_170925)"/>
<path d="M227.414 57.5271C223.803 57.0182 221.165 57.4171 220.669 58.7779C219.875 60.9602 224.893 64.7896 231.877 67.3312C238.862 69.8728 245.168 70.1642 245.962 67.982C246.462 66.6089 244.171 64.6878 241.026 62.7416" stroke="url(#paint5_linear_67179_170925)" stroke-width="4.20561"/>
<path d="M241.118 64.1958C241.118 59.5513 237.352 55.7861 232.706 55.7861C228.061 55.7861 225.151 58.7556 224.551 62.1039C224.551 62.1039 229.386 65.1308 231.619 65.7814C232.331 65.9889 233.037 66.2581 233.755 66.4967C234.559 66.7636 235.378 66.999 236.206 67.2033C236.773 67.343 237.551 67.5591 238.276 67.694C239.233 67.8719 240.09 67.9513 240.157 67.9513C240.276 67.9513 240.406 67.4226 240.674 66.8064C240.941 66.1902 241.118 64.1958 241.118 64.1958Z" fill="url(#paint6_linear_67179_170925)"/>
</g>
<circle opacity="0.418364" cx="47.8846" cy="113.808" r="9.80769" fill="url(#paint7_linear_67179_170925)"/>
<ellipse opacity="0.5" cx="154.038" cy="197.462" rx="29.4231" ry="8.07692" fill="url(#paint8_linear_67179_170925)"/>
<path d="M142.759 31.1409L146.011 32.3248L85.8291 197.675C85.5021 198.573 84.5089 199.036 83.6107 198.709C82.7125 198.382 82.2493 197.389 82.5763 196.491L142.759 31.1409Z" fill="#D8D8D8"/>
<path d="M142.677 31.2207L168.219 48.0498C170.319 49.4332 172.664 50.4015 175.129 50.9022C188.464 53.6118 197.158 66.5207 194.656 79.8968L188.623 112.155C188.595 112.305 188.382 112.309 188.346 112.162C185.546 100.871 174.894 93.2702 163.313 94.3633C158.037 94.8612 152.799 93.0807 148.92 89.4702L128.42 70.3911L142.677 31.2207Z" fill="#E57A77"/>
<circle cx="144.107" cy="30.6648" r="2.30769" transform="rotate(20 144.107 30.6648)" fill="#D8D8D8"/>
<path d="M105.462 130.034C105.462 130.034 107.193 129.168 107.193 129.457C107.193 129.745 107.193 132.918 107.193 132.918L106.039 133.495L105.462 130.034Z" fill="#FFE9E9"/>
<path d="M138.242 187.813C138.242 187.813 137.66 185.691 136.129 185.554C134.598 185.416 130.284 189.979 129.383 191.863C128.481 193.747 130.944 196.388 133.756 193.85C136.567 191.312 138.242 187.813 138.242 187.813Z" fill="#677285"/>
<path d="M140.044 194.004L138.285 189.097C137.577 187.121 134.885 186.87 133.823 188.68C133.611 189.042 133.494 189.447 133.5 189.866C133.529 191.851 133.853 197.853 136.666 198.663C140.044 199.635 140.044 194.004 140.044 194.004Z" fill="url(#paint9_linear_67179_170925)"/>
<path d="M161.758 187.813C161.758 187.813 162.34 185.691 163.871 185.554C165.402 185.416 169.716 189.979 170.617 191.863C171.519 193.747 169.056 196.388 166.244 193.85C163.433 191.312 161.758 187.813 161.758 187.813Z" fill="#677285"/>
<path d="M159.956 194.004L161.715 189.097C162.423 187.121 165.115 186.87 166.177 188.68C166.389 189.042 166.506 189.447 166.5 189.866C166.471 191.851 166.147 197.853 163.334 198.663C159.956 199.635 159.956 194.004 159.956 194.004Z" fill="url(#paint10_linear_67179_170925)"/>
<path d="M140.539 179.268C140.539 179.268 139.574 181.163 139.574 182.496C138.609 184.657 137.02 187.565 134.267 193.631C132.463 197.605 135.716 198.659 138.173 198.914C139.708 199.072 141.178 198.436 142.371 197.458L149.734 191.424L158.496 198.659C160.085 199.971 162.385 199.962 163.964 198.637C165.588 197.274 166.012 194.902 165.076 193C164.025 190.863 162.463 187.514 160.322 182.496C160.322 181.177 159.48 179.913 159.48 179.913L140.539 179.268Z" fill="url(#paint11_linear_67179_170925)"/>
<path d="M161.538 164.269C163.112 166.568 162.692 172.316 162.692 172.316H158.076L159.92 184.71C160.01 185.313 159.674 185.896 159.101 186.105C157.038 186.86 152.152 188.537 149.007 188.723C145.854 188.91 140.501 187.276 138.244 186.529C137.634 186.327 137.289 185.708 137.459 185.088C137.951 183.296 139.251 179.203 142.361 172.316C143.324 173.443 137.884 172.316 137.884 172.316C137.884 172.316 138.224 167.198 139.615 164.269C141.006 161.341 144.23 159.385 144.23 159.385L152.383 158.146C152.383 158.146 155.769 158.808 157.499 159.73C159.23 160.652 159.964 161.97 161.538 164.269Z" fill="url(#paint12_linear_67179_170925)"/>
<path d="M162.255 172.294L162.072 177.762L161.452 180.498L157.192 198.073L157.871 199.539L158.31 201.443L157.871 202.655L156.717 202.224L154.41 200.347L153.994 199.101C153.891 198.792 153.924 198.454 154.084 198.171L155.215 196.16L158.31 179.752L157.999 172.501L162.255 172.294Z" fill="#FDE7E6"/>
<path d="M138 172.5L138.498 177.761L139.117 180.497L143.378 198.073L142.698 199.539L142.259 201.443L142.698 202.654L143.852 202.224L146.16 200.347L146.575 199.101C146.678 198.792 146.646 198.454 146.486 198.17L145.355 196.16L142.259 179.751L142.5 172.5L138 172.5Z" fill="#FDE7E6"/>
<path fill-rule="evenodd" clip-rule="evenodd" d="M151.89 153.672H147.346V159.762H151.89V153.672ZM149.163 163.248C149.163 162.384 147.346 159.763 147.346 159.763H151.89C151.89 159.763 149.163 164.113 149.163 163.248Z" fill="#FECECD"/>
<ellipse cx="149.354" cy="152.664" rx="4.02909" ry="6" fill="#FFE9E9"/>
<path fill-rule="evenodd" clip-rule="evenodd" d="M144.932 153.664C145.254 152.52 145.254 149.998 145.899 149.916C146.543 149.834 147.833 150.311 149.122 149.385C149.767 148.876 150.089 148.813 150.089 148.557C153.312 149.166 151.385 151.002 152.99 153.026C153.157 153.237 153.635 153.026 153.635 153.026C153.635 153.026 153.635 148.044 153.312 147.6C152.99 147.155 151.701 145.365 151.056 146.642C151.056 146.004 149.767 145.345 148.477 145.834C147.188 146.323 145.254 147.28 144.932 148.557C144.609 149.834 144.287 152.387 144.932 153.664Z" fill="#513450"/>
<defs>
<radialGradient id="paint0_radial_67179_170925" cx="0" cy="0" r="1" gradientUnits="userSpaceOnUse" gradientTransform="translate(130.111 214.238) rotate(-90) scale(51.3403 536.198)">
<stop stop-color="#EBEDF0" stop-opacity="0.24"/>
<stop offset="0.536775" stop-color="#EBEDF0" stop-opacity="0.845525"/>
<stop offset="1" stop-color="#E0E4E7" stop-opacity="0.01"/>
</radialGradient>
<linearGradient id="paint1_linear_67179_170925" x1="113.461" y1="222.604" x2="115.864" y2="227.742" gradientUnits="userSpaceOnUse">
<stop stop-color="#E1E7EA"/>
<stop offset="1" stop-color="#D0D6DC"/>
</linearGradient>
<linearGradient id="paint2_linear_67179_170925" x1="189.845" y1="216.44" x2="194.241" y2="225.609" gradientUnits="userSpaceOnUse">
<stop stop-color="#E1E7EA"/>
<stop offset="1" stop-color="#D0D6DC"/>
</linearGradient>
<linearGradient id="paint3_linear_67179_170925" x1="50.7703" y1="198.968" x2="53.2577" y2="208.877" gradientUnits="userSpaceOnUse">
<stop stop-color="#FBFBFB"/>
<stop offset="1" stop-color="#D9DFE3"/>
</linearGradient>
<linearGradient id="paint4_linear_67179_170925" x1="221.198" y1="58.4049" x2="225.404" y2="72.945" gradientUnits="userSpaceOnUse">
<stop stop-color="#ECECEC"/>
<stop offset="0.717538" stop-color="#E1E7EA"/>
<stop offset="1" stop-color="#BCC3CA"/>
</linearGradient>
<linearGradient id="paint5_linear_67179_170925" x1="227.077" y1="64.3782" x2="244.911" y2="70.8691" gradientUnits="userSpaceOnUse">
<stop stop-color="#BAC6D2"/>
<stop offset="1" stop-color="#7F8F9F"/>
</linearGradient>
<linearGradient id="paint6_linear_67179_170925" x1="229.596" y1="63.472" x2="232.346" y2="69.0284" gradientUnits="userSpaceOnUse">
<stop stop-color="#E1E7EA"/>
<stop offset="1" stop-color="#D0D6DC"/>
</linearGradient>
<linearGradient id="paint7_linear_67179_170925" x1="60.7784" y1="116.719" x2="50.9851" y2="100.179" gradientUnits="userSpaceOnUse">
<stop stop-color="#DAE2E6"/>
<stop offset="0.58" stop-color="#E3EBEF"/>
<stop offset="1" stop-color="#EDF6F9"/>
</linearGradient>
<linearGradient id="paint8_linear_67179_170925" x1="131.953" y1="198.419" x2="148.479" y2="224.128" gradientUnits="userSpaceOnUse">
<stop stop-color="#C4CDD1"/>
<stop offset="1" stop-color="#C6CFD3" stop-opacity="0.01"/>
</linearGradient>
<linearGradient id="paint9_linear_67179_170925" x1="140.044" y1="198.806" x2="140.044" y2="185.997" gradientUnits="userSpaceOnUse">
<stop stop-color="#7A87AF"/>
<stop offset="1" stop-color="#444F77"/>
</linearGradient>
<linearGradient id="paint10_linear_67179_170925" x1="159.956" y1="198.806" x2="159.956" y2="185.997" gradientUnits="userSpaceOnUse">
<stop stop-color="#7A87AF"/>
<stop offset="1" stop-color="#444F77"/>
</linearGradient>
<linearGradient id="paint11_linear_67179_170925" x1="165.619" y1="199.606" x2="165.619" y2="179.268" gradientUnits="userSpaceOnUse">
<stop stop-color="#7A87AF"/>
<stop offset="1" stop-color="#444F77"/>
</linearGradient>
<linearGradient id="paint12_linear_67179_170925" x1="175.612" y1="172.116" x2="149.392" y2="200.22" gradientUnits="userSpaceOnUse">
<stop stop-color="#E5E9F0"/>
<stop offset="1" stop-color="#D2DAE8"/>
</linearGradient>
</defs>
</svg>
