<svg width="130" height="87" viewBox="0 0 130 87" fill="none" xmlns="http://www.w3.org/2000/svg">
<path d="M49.5217 26.2066V26.2026L76.7589 42.5108L92.9884 35.6819C96.2872 34.2576 99.8432 33.5252 103.437 33.5299C104.037 33.5299 104.628 33.5583 105.216 33.5948C103.266 25.9888 99.147 19.113 93.3605 13.8031C87.574 8.49323 80.369 4.97793 72.6213 3.68452C64.8736 2.3911 56.9168 3.37527 49.7182 6.51739C42.5195 9.65952 36.389 14.8243 32.0718 21.3839L32.4853 21.3717C38.504 21.3639 44.405 23.0386 49.5217 26.2066Z" fill="#0364B8"/>
<path d="M49.5258 26.203C44.4075 23.0356 38.5051 21.3623 32.4854 21.3721L32.0718 21.3843C26.1809 21.4579 20.4213 23.1347 15.412 26.2343C10.4027 29.334 6.33294 33.7394 3.64002 38.9772C0.947099 44.2151 -0.267206 50.0874 0.127572 55.9632C0.52235 61.839 2.51129 67.4963 5.88069 72.3271L29.8906 62.2237L40.5697 57.7332L64.3404 47.7311L76.7548 42.5112L49.5258 26.203Z" fill="#0078D4"/>
<path d="M105.216 33.5951C104.624 33.5537 104.03 33.5321 103.436 33.5303C99.8442 33.5273 96.2896 34.2612 92.9924 35.6863L76.7588 42.5111L81.4659 45.3278L96.8927 54.564L103.623 58.5924L126.639 72.3717C128.731 68.4912 129.815 64.1482 129.792 59.7405C129.769 55.3328 128.64 51.0013 126.508 47.1429C124.376 43.2844 121.31 40.0223 117.59 37.6554C113.87 35.2885 109.616 33.8924 105.216 33.5951Z" fill="#1490DF"/>
<path d="M103.623 58.592L96.8928 54.5636L81.466 45.3233L76.7629 42.5107L64.3444 47.7307L40.5738 57.7328L29.8905 62.2232L5.87256 72.3267C8.85788 76.6167 12.8377 80.1206 17.472 82.5392C22.1063 84.9578 27.2574 86.2191 32.4853 86.2154H103.437C108.194 86.2172 112.864 84.931 116.949 82.4935C121.034 80.056 124.383 76.5581 126.64 72.3713L103.623 58.592Z" fill="#28A8EA"/>
</svg>
