<svg width="66" height="22" viewBox="0 0 66 22" fill="none" xmlns="http://www.w3.org/2000/svg">
<path d="M34.1336 6.81319C34.096 9.78202 36.7794 11.4389 38.8009 12.4238C40.8779 13.4346 41.5755 14.0827 41.5676 14.9864C41.5517 16.3697 39.9108 16.9801 38.3748 17.0039C35.6953 17.0455 34.1376 16.2806 32.8989 15.7018L31.9338 20.2185C33.1764 20.7913 35.4773 21.2907 37.8635 21.3125C43.4642 21.3125 47.1287 18.5478 47.1485 14.261C47.1703 8.82082 39.6234 8.51958 39.6749 6.08783C39.6928 5.35058 40.3963 4.56378 41.9382 4.36361C42.7012 4.26253 44.8079 4.18524 47.1961 5.28518L48.1335 0.915167C46.8493 0.447447 45.1984 -0.000453949 43.1432 -0.000453949C37.8714 -0.000453949 34.1634 2.8019 34.1336 6.81319ZM57.1411 0.376101C56.1184 0.376101 55.2563 0.972641 54.8718 1.88826L46.8711 20.9914H52.4678L53.5816 17.9136H60.4211L61.0671 20.9914H66L61.6954 0.376101H57.1411ZM57.9239 5.94514L59.5391 13.6863H55.1156L57.9239 5.94514ZM27.3477 0.376101L22.9361 20.9914H28.2693L32.6789 0.376101H27.3477ZM19.4579 0.376101L13.9067 14.4077L11.6613 2.47688C11.3977 1.14506 10.3572 0.376101 9.20179 0.376101H0.126839L0 0.974623C1.86295 1.37892 3.97958 2.03096 5.26185 2.72857C6.04666 3.15467 6.27061 3.52726 6.52826 4.54L10.7813 20.9914H16.4178L25.0587 0.376101H19.4579Z" fill="url(#paint0_linear_65257_144501)"/>
<defs>
<linearGradient id="paint0_linear_65257_144501" x1="30.343" y1="21.7401" x2="30.9599" y2="-0.148667" gradientUnits="userSpaceOnUse">
<stop stop-color="#222357"/>
<stop offset="1" stop-color="#254AA5"/>
</linearGradient>
</defs>
</svg>
